<svg xmlns="http://www.w3.org/2000/svg" xmlns:xlink="http://www.w3.org/1999/xlink" width="1044" zoomAndPan="magnify" viewBox="0 0 782.88 558.75" height="745" preserveAspectRatio="xMidYMid meet" version="1.0"><defs><filter x="0%" y="0%" width="100%" height="100%" id="de526182c1"><feColorMatrix values="0 0 0 0 1 0 0 0 0 1 0 0 0 0 1 0 0 0 1 0" color-interpolation-filters="sRGB"/></filter><g/><clipPath id="2689580ddb"><path d="M 296.464844 321.3125 L 406.316406 321.3125 L 406.316406 328.398438 L 296.464844 328.398438 Z M 296.464844 321.3125 " clip-rule="nonzero"/></clipPath><clipPath id="dda2acae73"><path d="M 0.464844 0.3125 L 110.316406 0.3125 L 110.316406 7.398438 L 0.464844 7.398438 Z M 0.464844 0.3125 " clip-rule="nonzero"/></clipPath><clipPath id="9e14132479"><rect x="0" width="111" y="0" height="8"/></clipPath><clipPath id="6b56f0e9cc"><path d="M 296 321 L 407 321 L 407 329 L 296 329 Z M 296 321 " clip-rule="nonzero"/></clipPath><clipPath id="3ad4e08afd"><path d="M 296.464844 321.164062 L 406.316406 321.164062 C 406.398438 321.164062 406.457031 321.222656 406.457031 321.300781 L 406.457031 328.390625 C 406.457031 328.46875 406.398438 328.527344 406.316406 328.527344 L 296.464844 328.527344 C 296.386719 328.527344 296.324219 328.46875 296.324219 328.390625 L 296.324219 321.300781 C 296.324219 321.222656 296.386719 321.164062 296.464844 321.164062 M 296.464844 321.453125 L 296.464844 321.3125 L 296.605469 321.3125 L 296.605469 328.398438 L 296.464844 328.398438 L 296.464844 328.257812 L 406.316406 328.257812 L 406.316406 328.398438 L 406.175781 328.398438 L 406.175781 321.3125 L 406.316406 321.3125 L 406.316406 321.453125 Z M 296.464844 321.453125 " clip-rule="nonzero"/></clipPath><clipPath id="6f6a0c0c86"><path d="M 0.144531 0 L 110.492188 0 L 110.492188 7.652344 L 0.144531 7.652344 Z M 0.144531 0 " clip-rule="nonzero"/></clipPath><clipPath id="e0d12babfb"><path d="M 0.464844 0.164062 L 110.316406 0.164062 C 110.398438 0.164062 110.457031 0.222656 110.457031 0.300781 L 110.457031 7.390625 C 110.457031 7.46875 110.398438 7.527344 110.316406 7.527344 L 0.464844 7.527344 C 0.386719 7.527344 0.324219 7.46875 0.324219 7.390625 L 0.324219 0.300781 C 0.324219 0.222656 0.386719 0.164062 0.464844 0.164062 M 0.464844 0.453125 L 0.464844 0.3125 L 0.605469 0.3125 L 0.605469 7.398438 L 0.464844 7.398438 L 0.464844 7.257812 L 110.316406 7.257812 L 110.316406 7.398438 L 110.175781 7.398438 L 110.175781 0.3125 L 110.316406 0.3125 L 110.316406 0.453125 Z M 0.464844 0.453125 " clip-rule="nonzero"/></clipPath><clipPath id="bd49145ed6"><rect x="0" width="111" y="0" height="8"/></clipPath><clipPath id="3fc954c5de"><path d="M 451.65625 321.3125 L 483.472656 321.3125 L 483.472656 328.398438 L 451.65625 328.398438 Z M 451.65625 321.3125 " clip-rule="nonzero"/></clipPath><clipPath id="24a489ed2d"><path d="M 0.65625 0.3125 L 32.472656 0.3125 L 32.472656 7.398438 L 0.65625 7.398438 Z M 0.65625 0.3125 " clip-rule="nonzero"/></clipPath><clipPath id="18283a22c0"><rect x="0" width="33" y="0" height="8"/></clipPath><clipPath id="d43ec53dc5"><path d="M 451.199219 321 L 484 321 L 484 329 L 451.199219 329 Z M 451.199219 321 " clip-rule="nonzero"/></clipPath><clipPath id="115fd54c63"><path d="M 451.65625 321.164062 L 483.472656 321.164062 C 483.550781 321.164062 483.613281 321.222656 483.613281 321.300781 L 483.613281 328.390625 C 483.613281 328.46875 483.550781 328.527344 483.472656 328.527344 L 451.65625 328.527344 C 451.578125 328.527344 451.515625 328.46875 451.515625 328.390625 L 451.515625 321.300781 C 451.515625 321.222656 451.578125 321.164062 451.65625 321.164062 M 451.65625 321.453125 L 451.65625 321.3125 L 451.796875 321.3125 L 451.796875 328.398438 L 451.65625 328.398438 L 451.65625 328.257812 L 483.472656 328.257812 L 483.472656 328.398438 L 483.332031 328.398438 L 483.332031 321.3125 L 483.472656 321.3125 L 483.472656 321.453125 Z M 451.65625 321.453125 " clip-rule="nonzero"/></clipPath><clipPath id="eefacd1855"><path d="M 0.351562 0 L 32.738281 0 L 32.738281 7.652344 L 0.351562 7.652344 Z M 0.351562 0 " clip-rule="nonzero"/></clipPath><clipPath id="8f0bd48b42"><path d="M 0.65625 0.164062 L 32.472656 0.164062 C 32.550781 0.164062 32.613281 0.222656 32.613281 0.300781 L 32.613281 7.390625 C 32.613281 7.46875 32.550781 7.527344 32.472656 7.527344 L 0.65625 7.527344 C 0.578125 7.527344 0.515625 7.46875 0.515625 7.390625 L 0.515625 0.300781 C 0.515625 0.222656 0.578125 0.164062 0.65625 0.164062 M 0.65625 0.453125 L 0.65625 0.3125 L 0.796875 0.3125 L 0.796875 7.398438 L 0.65625 7.398438 L 0.65625 7.257812 L 32.472656 7.257812 L 32.472656 7.398438 L 32.332031 7.398438 L 32.332031 0.3125 L 32.472656 0.3125 L 32.472656 0.453125 Z M 0.65625 0.453125 " clip-rule="nonzero"/></clipPath><clipPath id="e50567da4d"><rect x="0" width="33" y="0" height="8"/></clipPath><clipPath id="a613bcdcdf"><path d="M 92.46875 218.6875 L 207.984375 218.6875 L 207.984375 225.773438 L 92.46875 225.773438 Z M 92.46875 218.6875 " clip-rule="nonzero"/></clipPath><clipPath id="c8f66efb76"><path d="M 0.46875 0.6875 L 115.984375 0.6875 L 115.984375 7.773438 L 0.46875 7.773438 Z M 0.46875 0.6875 " clip-rule="nonzero"/></clipPath><clipPath id="3775950d53"><rect x="0" width="116" y="0" height="8"/></clipPath><clipPath id="f1bf5cf71c"><path d="M 92.054688 218 L 208.777344 218 L 208.777344 226 L 92.054688 226 Z M 92.054688 218 " clip-rule="nonzero"/></clipPath><clipPath id="0ec966ab45"><path d="M 92.46875 218.546875 L 207.984375 218.546875 C 208.066406 218.546875 208.125 218.609375 208.125 218.6875 L 208.125 225.773438 C 208.125 225.855469 208.066406 225.914062 207.984375 225.914062 L 92.46875 225.914062 C 92.386719 225.914062 92.328125 225.855469 92.328125 225.773438 L 92.328125 218.6875 C 92.328125 218.609375 92.386719 218.546875 92.46875 218.546875 M 92.46875 218.839844 L 92.46875 218.699219 L 92.609375 218.699219 L 92.609375 225.785156 L 92.46875 225.785156 L 92.46875 225.644531 L 207.984375 225.644531 L 207.984375 225.785156 L 207.847656 225.785156 L 207.847656 218.699219 L 207.984375 218.699219 L 207.984375 218.839844 Z M 92.46875 218.839844 " clip-rule="nonzero"/></clipPath><clipPath id="bd16d384a3"><path d="M 0.234375 0.542969 L 116.34375 0.542969 L 116.34375 7.980469 L 0.234375 7.980469 Z M 0.234375 0.542969 " clip-rule="nonzero"/></clipPath><clipPath id="faf9c6e51d"><path d="M 0.46875 0.546875 L 115.984375 0.546875 C 116.066406 0.546875 116.125 0.609375 116.125 0.6875 L 116.125 7.773438 C 116.125 7.855469 116.066406 7.914062 115.984375 7.914062 L 0.46875 7.914062 C 0.386719 7.914062 0.328125 7.855469 0.328125 7.773438 L 0.328125 0.6875 C 0.328125 0.609375 0.386719 0.546875 0.46875 0.546875 M 0.46875 0.839844 L 0.46875 0.699219 L 0.609375 0.699219 L 0.609375 7.785156 L 0.46875 7.785156 L 0.46875 7.644531 L 115.984375 7.644531 L 115.984375 7.785156 L 115.847656 7.785156 L 115.847656 0.699219 L 115.984375 0.699219 L 115.984375 0.839844 Z M 0.46875 0.839844 " clip-rule="nonzero"/></clipPath><clipPath id="bb884488ed"><rect x="0" width="117" y="0" height="8"/></clipPath><clipPath id="f78baf6894"><path d="M 253.316406 218.6875 L 285.132812 218.6875 L 285.132812 225.773438 L 253.316406 225.773438 Z M 253.316406 218.6875 " clip-rule="nonzero"/></clipPath><clipPath id="32af6aa969"><path d="M 0.316406 0.6875 L 32.132812 0.6875 L 32.132812 7.773438 L 0.316406 7.773438 Z M 0.316406 0.6875 " clip-rule="nonzero"/></clipPath><clipPath id="67c4457ca0"><rect x="0" width="33" y="0" height="8"/></clipPath><clipPath id="61a4673fc2"><path d="M 253 218 L 285.59375 218 L 285.59375 226 L 253 226 Z M 253 218 " clip-rule="nonzero"/></clipPath><clipPath id="2d085d669a"><path d="M 253.316406 218.546875 L 285.132812 218.546875 C 285.210938 218.546875 285.269531 218.609375 285.269531 218.6875 L 285.269531 225.773438 C 285.269531 225.855469 285.210938 225.914062 285.132812 225.914062 L 253.316406 225.914062 C 253.234375 225.914062 253.175781 225.855469 253.175781 225.773438 L 253.175781 218.6875 C 253.175781 218.609375 253.234375 218.546875 253.316406 218.546875 M 253.316406 218.839844 L 253.316406 218.699219 L 253.457031 218.699219 L 253.457031 225.785156 L 253.316406 225.785156 L 253.316406 225.644531 L 285.132812 225.644531 L 285.132812 225.785156 L 284.992188 225.785156 L 284.992188 218.699219 L 285.132812 218.699219 L 285.132812 218.839844 Z M 253.316406 218.839844 " clip-rule="nonzero"/></clipPath><clipPath id="0b14f46029"><path d="M 0 0.542969 L 32.347656 0.542969 L 32.347656 7.980469 L 0 7.980469 Z M 0 0.542969 " clip-rule="nonzero"/></clipPath><clipPath id="dd5e864230"><path d="M 0.316406 0.546875 L 32.132812 0.546875 C 32.210938 0.546875 32.269531 0.609375 32.269531 0.6875 L 32.269531 7.773438 C 32.269531 7.855469 32.210938 7.914062 32.132812 7.914062 L 0.316406 7.914062 C 0.234375 7.914062 0.175781 7.855469 0.175781 7.773438 L 0.175781 0.6875 C 0.175781 0.609375 0.234375 0.546875 0.316406 0.546875 M 0.316406 0.839844 L 0.316406 0.699219 L 0.457031 0.699219 L 0.457031 7.785156 L 0.316406 7.785156 L 0.316406 7.644531 L 32.132812 7.644531 L 32.132812 7.785156 L 31.992188 7.785156 L 31.992188 0.699219 L 32.132812 0.699219 L 32.132812 0.839844 Z M 0.316406 0.839844 " clip-rule="nonzero"/></clipPath><clipPath id="0c43772e9d"><rect x="0" width="33" y="0" height="8"/></clipPath><clipPath id="f875727dca"><path d="M 92.46875 470.867188 L 687.46875 470.867188 L 687.46875 473.695312 L 92.46875 473.695312 Z M 92.46875 470.867188 " clip-rule="nonzero"/></clipPath><clipPath id="226f0bfb75"><path d="M 0.46875 0.867188 L 595.46875 0.867188 L 595.46875 3.695312 L 0.46875 3.695312 Z M 0.46875 0.867188 " clip-rule="nonzero"/></clipPath><clipPath id="0a9544afb7"><rect x="0" width="596" y="0" height="4"/></clipPath><clipPath id="d9043b96b9"><path d="M 92.054688 470.074219 L 687.632812 470.074219 L 687.632812 474 L 92.054688 474 Z M 92.054688 470.074219 " clip-rule="nonzero"/></clipPath><clipPath id="c81b8073a8"><path d="M 92.46875 470.714844 L 687.46875 470.714844 C 687.550781 470.714844 687.609375 470.777344 687.609375 470.855469 L 687.609375 473.683594 C 687.609375 473.765625 687.550781 473.824219 687.46875 473.824219 L 92.46875 473.824219 C 92.386719 473.824219 92.328125 473.765625 92.328125 473.683594 L 92.328125 470.855469 C 92.328125 470.777344 92.386719 470.714844 92.46875 470.714844 M 92.46875 471.003906 L 92.46875 470.867188 L 92.609375 470.867188 L 92.609375 473.695312 L 92.46875 473.695312 L 92.46875 473.554688 L 687.46875 473.554688 L 687.46875 473.695312 L 687.332031 473.695312 L 687.332031 470.867188 L 687.46875 470.867188 L 687.46875 471.003906 Z M 92.46875 471.003906 " clip-rule="nonzero"/></clipPath><clipPath id="eb7d60ba36"><path d="M 0.234375 0.667969 L 595.632812 0.667969 L 595.632812 4 L 0.234375 4 Z M 0.234375 0.667969 " clip-rule="nonzero"/></clipPath><clipPath id="63a6904fa7"><path d="M 0.46875 0.714844 L 595.46875 0.714844 C 595.550781 0.714844 595.609375 0.777344 595.609375 0.855469 L 595.609375 3.683594 C 595.609375 3.765625 595.550781 3.824219 595.46875 3.824219 L 0.46875 3.824219 C 0.386719 3.824219 0.328125 3.765625 0.328125 3.683594 L 0.328125 0.855469 C 0.328125 0.777344 0.386719 0.714844 0.46875 0.714844 M 0.46875 1.003906 L 0.46875 0.867188 L 0.609375 0.867188 L 0.609375 3.695312 L 0.46875 3.695312 L 0.46875 3.554688 L 595.46875 3.554688 L 595.46875 3.695312 L 595.332031 3.695312 L 595.332031 0.867188 L 595.46875 0.867188 L 595.46875 1.003906 Z M 0.46875 1.003906 " clip-rule="nonzero"/></clipPath><clipPath id="f6467ce40f"><rect x="0" width="596" y="0" height="4"/></clipPath><clipPath id="8213065581"><path d="M 75.464844 88.355469 L 704.472656 88.355469 L 704.472656 105.359375 L 75.464844 105.359375 Z M 285.132812 105.359375 L 296.464844 105.359375 L 296.464844 364.972656 L 285.132812 364.972656 Z M 483.472656 105.359375 L 494.808594 105.359375 L 494.808594 470.867188 L 483.472656 470.867188 Z M 75.464844 105.359375 L 92.46875 105.359375 L 92.46875 473.695312 L 75.464844 473.695312 Z M 687.46875 105.359375 L 704.472656 105.359375 L 704.472656 473.695312 L 687.46875 473.695312 Z M 687.46875 105.359375 " clip-rule="nonzero"/></clipPath><clipPath id="e68a563ad0"><path d="M 0.464844 0.355469 L 629.472656 0.355469 L 629.472656 17.359375 L 0.464844 17.359375 Z M 210.132812 17.359375 L 221.464844 17.359375 L 221.464844 276.972656 L 210.132812 276.972656 Z M 408.472656 17.359375 L 419.808594 17.359375 L 419.808594 382.867188 L 408.472656 382.867188 Z M 0.464844 17.359375 L 17.46875 17.359375 L 17.46875 385.695312 L 0.464844 385.695312 Z M 612.46875 17.359375 L 629.472656 17.359375 L 629.472656 385.695312 L 612.46875 385.695312 Z M 612.46875 17.359375 " clip-rule="nonzero"/></clipPath><clipPath id="46f02e7f70"><rect x="0" width="630" y="0" height="386"/></clipPath><clipPath id="6dfe714688"><path d="M 75.09375 87.988281 L 705 87.988281 L 705 474.066406 L 75.09375 474.066406 Z M 75.09375 87.988281 " clip-rule="nonzero"/></clipPath><clipPath id="0cea1980e1"><path d="M 483.113281 470.867188 L 483.113281 105.359375 L 483.472656 105.359375 L 483.472656 105.71875 L 296.464844 105.71875 L 296.464844 105.359375 L 296.824219 105.359375 L 296.824219 364.972656 C 296.824219 365.171875 296.664062 365.332031 296.464844 365.332031 L 285.132812 365.332031 C 284.929688 365.332031 284.769531 365.171875 284.769531 364.972656 L 284.769531 105.359375 L 285.132812 105.359375 L 285.132812 105.71875 L 92.46875 105.71875 L 92.46875 105.359375 L 92.828125 105.359375 L 92.828125 473.695312 C 92.828125 473.894531 92.667969 474.054688 92.46875 474.054688 L 75.464844 474.054688 C 75.265625 474.054688 75.105469 473.894531 75.105469 473.695312 L 75.105469 88.355469 C 75.105469 88.15625 75.265625 87.996094 75.464844 87.996094 L 704.472656 87.996094 C 704.671875 87.996094 704.832031 88.15625 704.832031 88.355469 L 704.832031 473.695312 C 704.832031 473.894531 704.671875 474.054688 704.472656 474.054688 L 687.46875 474.054688 C 687.269531 474.054688 687.109375 473.894531 687.109375 473.695312 L 687.109375 105.359375 L 687.46875 105.359375 L 687.46875 105.71875 L 494.808594 105.71875 L 494.808594 105.359375 L 495.167969 105.359375 L 495.167969 470.867188 C 495.167969 471.066406 495.007812 471.226562 494.808594 471.226562 L 483.472656 471.226562 C 483.273438 471.226562 483.113281 471.066406 483.113281 470.867188 M 483.832031 470.867188 L 483.472656 470.867188 L 483.472656 470.503906 L 494.808594 470.503906 L 494.808594 470.867188 L 494.445312 470.867188 L 494.445312 105.359375 C 494.445312 105.160156 494.605469 105 494.808594 105 L 687.46875 105 C 687.671875 105 687.832031 105.160156 687.832031 105.359375 L 687.832031 473.695312 L 687.46875 473.695312 L 687.46875 473.335938 L 704.472656 473.335938 L 704.472656 473.695312 L 704.113281 473.695312 L 704.113281 88.355469 L 704.472656 88.355469 L 704.472656 88.714844 L 75.464844 88.714844 L 75.464844 88.355469 L 75.824219 88.355469 L 75.824219 473.695312 L 75.464844 473.695312 L 75.464844 473.335938 L 92.46875 473.335938 L 92.46875 473.695312 L 92.109375 473.695312 L 92.109375 105.359375 C 92.109375 105.160156 92.265625 105 92.46875 105 L 285.132812 105 C 285.332031 105 285.492188 105.160156 285.492188 105.359375 L 285.492188 364.972656 L 285.132812 364.972656 L 285.132812 364.613281 L 296.464844 364.613281 L 296.464844 364.972656 L 296.105469 364.972656 L 296.105469 105.359375 C 296.105469 105.160156 296.265625 105 296.464844 105 L 483.472656 105 C 483.671875 105 483.832031 105.160156 483.832031 105.359375 Z M 483.832031 470.867188 " clip-rule="nonzero"/></clipPath><clipPath id="2dd81f4ece"><path d="M 0.09375 0.988281 L 629.917969 0.988281 L 629.917969 387.066406 L 0.09375 387.066406 Z M 0.09375 0.988281 " clip-rule="nonzero"/></clipPath><clipPath id="942c0ad40c"><path d="M 408.113281 383.867188 L 408.113281 18.359375 L 408.472656 18.359375 L 408.472656 18.71875 L 221.464844 18.71875 L 221.464844 18.359375 L 221.824219 18.359375 L 221.824219 277.972656 C 221.824219 278.171875 221.664062 278.332031 221.464844 278.332031 L 210.132812 278.332031 C 209.929688 278.332031 209.769531 278.171875 209.769531 277.972656 L 209.769531 18.359375 L 210.132812 18.359375 L 210.132812 18.71875 L 17.46875 18.71875 L 17.46875 18.359375 L 17.828125 18.359375 L 17.828125 386.695312 C 17.828125 386.894531 17.667969 387.054688 17.46875 387.054688 L 0.464844 387.054688 C 0.265625 387.054688 0.105469 386.894531 0.105469 386.695312 L 0.105469 1.355469 C 0.105469 1.15625 0.265625 0.996094 0.464844 0.996094 L 629.472656 0.996094 C 629.671875 0.996094 629.832031 1.15625 629.832031 1.355469 L 629.832031 386.695312 C 629.832031 386.894531 629.671875 387.054688 629.472656 387.054688 L 612.46875 387.054688 C 612.269531 387.054688 612.109375 386.894531 612.109375 386.695312 L 612.109375 18.359375 L 612.46875 18.359375 L 612.46875 18.71875 L 419.808594 18.71875 L 419.808594 18.359375 L 420.167969 18.359375 L 420.167969 383.867188 C 420.167969 384.066406 420.007812 384.226562 419.808594 384.226562 L 408.472656 384.226562 C 408.273438 384.226562 408.113281 384.066406 408.113281 383.867188 M 408.832031 383.867188 L 408.472656 383.867188 L 408.472656 383.503906 L 419.808594 383.503906 L 419.808594 383.867188 L 419.445312 383.867188 L 419.445312 18.359375 C 419.445312 18.160156 419.605469 18 419.808594 18 L 612.46875 18 C 612.671875 18 612.832031 18.160156 612.832031 18.359375 L 612.832031 386.695312 L 612.46875 386.695312 L 612.46875 386.335938 L 629.472656 386.335938 L 629.472656 386.695312 L 629.113281 386.695312 L 629.113281 1.355469 L 629.472656 1.355469 L 629.472656 1.714844 L 0.464844 1.714844 L 0.464844 1.355469 L 0.824219 1.355469 L 0.824219 386.695312 L 0.464844 386.695312 L 0.464844 386.335938 L 17.46875 386.335938 L 17.46875 386.695312 L 17.109375 386.695312 L 17.109375 18.359375 C 17.109375 18.160156 17.265625 18 17.46875 18 L 210.132812 18 C 210.332031 18 210.492188 18.160156 210.492188 18.359375 L 210.492188 277.972656 L 210.132812 277.972656 L 210.132812 277.613281 L 221.464844 277.613281 L 221.464844 277.972656 L 221.105469 277.972656 L 221.105469 18.359375 C 221.105469 18.160156 221.265625 18 221.464844 18 L 408.472656 18 C 408.671875 18 408.832031 18.160156 408.832031 18.359375 Z M 408.832031 383.867188 " clip-rule="nonzero"/></clipPath><clipPath id="bab75b57b1"><rect x="0" width="630" y="0" height="388"/></clipPath><clipPath id="56ac49d520"><path d="M 285.132812 421.636719 L 296.464844 421.636719 L 296.464844 470.855469 L 285.132812 470.855469 Z M 285.132812 421.636719 " clip-rule="nonzero"/></clipPath><clipPath id="37d9f5eb26"><path d="M 0.132812 0.636719 L 11.464844 0.636719 L 11.464844 49.855469 L 0.132812 49.855469 Z M 0.132812 0.636719 " clip-rule="nonzero"/></clipPath><clipPath id="a1f1b0f7c1"><rect x="0" width="12" y="0" height="50"/></clipPath><clipPath id="fa546944a1"><path d="M 284.59375 421.191406 L 297 421.191406 L 297 472 L 284.59375 472 Z M 284.59375 421.191406 " clip-rule="nonzero"/></clipPath><clipPath id="cb3333b794"><path d="M 285.132812 421.277344 L 296.464844 421.277344 C 296.664062 421.277344 296.824219 421.4375 296.824219 421.636719 L 296.824219 470.855469 C 296.824219 471.054688 296.664062 471.214844 296.464844 471.214844 L 285.132812 471.214844 C 284.929688 471.214844 284.769531 471.054688 284.769531 470.855469 L 284.769531 421.636719 C 284.769531 421.4375 284.929688 421.277344 285.132812 421.277344 M 285.132812 421.996094 L 285.132812 421.636719 L 285.492188 421.636719 L 285.492188 470.855469 L 285.132812 470.855469 L 285.132812 470.496094 L 296.464844 470.496094 L 296.464844 470.855469 L 296.105469 470.855469 L 296.105469 421.636719 L 296.464844 421.636719 L 296.464844 421.996094 Z M 285.132812 421.996094 " clip-rule="nonzero"/></clipPath><clipPath id="dde6ce991f"><path d="M 0.628906 0.25 L 12.863281 0.25 L 12.863281 50.390625 L 0.628906 50.390625 Z M 0.628906 0.25 " clip-rule="nonzero"/></clipPath><clipPath id="ea3c541fce"><path d="M 1.132812 0.277344 L 12.464844 0.277344 C 12.664062 0.277344 12.824219 0.4375 12.824219 0.636719 L 12.824219 49.855469 C 12.824219 50.054688 12.664062 50.214844 12.464844 50.214844 L 1.132812 50.214844 C 0.929688 50.214844 0.769531 50.054688 0.769531 49.855469 L 0.769531 0.636719 C 0.769531 0.4375 0.929688 0.277344 1.132812 0.277344 M 1.132812 0.996094 L 1.132812 0.636719 L 1.492188 0.636719 L 1.492188 49.855469 L 1.132812 49.855469 L 1.132812 49.496094 L 12.464844 49.496094 L 12.464844 49.855469 L 12.105469 49.855469 L 12.105469 0.636719 L 12.464844 0.636719 L 12.464844 0.996094 Z M 1.132812 0.996094 " clip-rule="nonzero"/></clipPath><clipPath id="3f76136248"><rect x="0" width="13" y="0" height="51"/></clipPath><clipPath id="a7886cd0c7"><path d="M 92.054688 473.066406 L 688 473.066406 L 688 474 L 92.054688 474 Z M 92.054688 473.066406 " clip-rule="nonzero"/></clipPath><clipPath id="d6a1f0d8c7"><path d="M 92.46875 473.445312 L 687.46875 473.445312 C 687.609375 473.445312 687.71875 473.554688 687.71875 473.695312 C 687.71875 473.835938 687.609375 473.945312 687.46875 473.945312 L 92.46875 473.945312 C 92.328125 473.945312 92.21875 473.835938 92.21875 473.695312 C 92.21875 473.554688 92.328125 473.445312 92.46875 473.445312 Z M 92.46875 473.445312 " clip-rule="nonzero"/></clipPath><clipPath id="89b89dcdf6"><path d="M 0.0546875 0.308594 L 595.886719 0.308594 L 595.886719 1 L 0.0546875 1 Z M 0.0546875 0.308594 " clip-rule="nonzero"/></clipPath><clipPath id="d2ed6eee2f"><path d="M 0.46875 0.445312 L 595.46875 0.445312 C 595.609375 0.445312 595.71875 0.554688 595.71875 0.695312 C 595.71875 0.835938 595.609375 0.945312 595.46875 0.945312 L 0.46875 0.945312 C 0.328125 0.945312 0.21875 0.835938 0.21875 0.695312 C 0.21875 0.554688 0.328125 0.445312 0.46875 0.445312 Z M 0.46875 0.445312 " clip-rule="nonzero"/></clipPath><clipPath id="bd60bf71e2"><rect x="0" width="596" y="0" height="1"/></clipPath><clipPath id="b7be0da75d"><path d="M 253 173 L 253.667969 173 L 253.667969 219 L 253 219 Z M 253 173 " clip-rule="nonzero"/></clipPath><clipPath id="dd8a46e016"><path d="M 253.175781 218.6875 L 253.175781 173.359375 C 253.175781 173.277344 253.234375 173.21875 253.316406 173.21875 C 253.394531 173.21875 253.457031 173.277344 253.457031 173.359375 L 253.457031 218.6875 C 253.457031 218.769531 253.394531 218.828125 253.316406 218.828125 C 253.234375 218.828125 253.175781 218.769531 253.175781 218.6875 Z M 253.175781 218.6875 " clip-rule="nonzero"/></clipPath><clipPath id="e8e6410b9e"><path d="M 0 0.203125 L 0.667969 0.203125 L 0.667969 46 L 0 46 Z M 0 0.203125 " clip-rule="nonzero"/></clipPath><clipPath id="15f3e2a18d"><path d="M 0.175781 45.6875 L 0.175781 0.359375 C 0.175781 0.277344 0.234375 0.21875 0.316406 0.21875 C 0.394531 0.21875 0.457031 0.277344 0.457031 0.359375 L 0.457031 45.6875 C 0.457031 45.769531 0.394531 45.828125 0.316406 45.828125 C 0.234375 45.828125 0.175781 45.769531 0.175781 45.6875 Z M 0.175781 45.6875 " clip-rule="nonzero"/></clipPath><clipPath id="6768fda645"><rect x="0" width="1" y="0" height="46"/></clipPath><clipPath id="8a59d6d69a"><path d="M 207.777344 173 L 253.667969 173 L 253.667969 219 L 207.777344 219 Z M 207.777344 173 " clip-rule="nonzero"/></clipPath><clipPath id="b62387ec82"><path d="M 253.316406 173.21875 L 253.316406 173.5 C 228.527344 173.5 208.125 193.898438 208.125 218.6875 C 208.125 218.769531 208.066406 218.828125 207.984375 218.828125 C 207.90625 218.828125 207.847656 218.769531 207.847656 218.6875 C 207.847656 193.738281 228.375 173.207031 253.324219 173.207031 C 253.40625 173.207031 253.464844 173.269531 253.464844 173.347656 C 253.464844 173.429688 253.40625 173.488281 253.324219 173.488281 C 253.246094 173.488281 253.183594 173.429688 253.183594 173.347656 C 253.183594 173.269531 253.246094 173.207031 253.324219 173.207031 Z M 253.316406 173.21875 " clip-rule="nonzero"/></clipPath><mask id="1f840f616c"><g filter="url(#de526182c1)"><rect x="-78.288" width="939.456" fill="#000000" y="-55.875" height="670.5" fill-opacity="0.3"/></g></mask><clipPath id="e4d86ec6a3"><path d="M 0.777344 0.203125 L 46.667969 0.203125 L 46.667969 46 L 0.777344 46 Z M 0.777344 0.203125 " clip-rule="nonzero"/></clipPath><clipPath id="adc2e34fc0"><path d="M 46.316406 0.21875 L 46.316406 0.5 C 21.527344 0.5 1.125 20.898438 1.125 45.6875 C 1.125 45.769531 1.066406 45.828125 0.984375 45.828125 C 0.90625 45.828125 0.847656 45.769531 0.847656 45.6875 C 0.847656 20.738281 21.375 0.207031 46.324219 0.207031 C 46.40625 0.207031 46.464844 0.269531 46.464844 0.347656 C 46.464844 0.429688 46.40625 0.488281 46.324219 0.488281 C 46.246094 0.488281 46.183594 0.429688 46.183594 0.347656 C 46.183594 0.269531 46.246094 0.207031 46.324219 0.207031 Z M 46.316406 0.21875 " clip-rule="nonzero"/></clipPath><clipPath id="68f4cd4913"><rect x="0" width="47" y="0" height="46"/></clipPath><clipPath id="5d2e2b3960"><path d="M 451.199219 275.539062 L 452 275.539062 L 452 322 L 451.199219 322 Z M 451.199219 275.539062 " clip-rule="nonzero"/></clipPath><clipPath id="7f00cbd541"><path d="M 451.507812 321.3125 L 451.507812 275.972656 C 451.507812 275.894531 451.566406 275.832031 451.644531 275.832031 C 451.726562 275.832031 451.785156 275.894531 451.785156 275.972656 L 451.785156 321.300781 C 451.785156 321.382812 451.726562 321.441406 451.644531 321.441406 C 451.566406 321.441406 451.507812 321.382812 451.507812 321.300781 Z M 451.507812 321.3125 " clip-rule="nonzero"/></clipPath><clipPath id="0a3a39eb68"><path d="M 0.351562 0.636719 L 0.832031 0.636719 L 0.832031 46.457031 L 0.351562 46.457031 Z M 0.351562 0.636719 " clip-rule="nonzero"/></clipPath><clipPath id="201e5c7137"><path d="M 0.507812 46.3125 L 0.507812 0.972656 C 0.507812 0.894531 0.566406 0.832031 0.644531 0.832031 C 0.726562 0.832031 0.785156 0.894531 0.785156 0.972656 L 0.785156 46.300781 C 0.785156 46.382812 0.726562 46.441406 0.644531 46.441406 C 0.566406 46.441406 0.507812 46.382812 0.507812 46.300781 Z M 0.507812 46.3125 " clip-rule="nonzero"/></clipPath><clipPath id="6949ab7589"><rect x="0" width="1" y="0" height="47"/></clipPath><clipPath id="2d64f71363"><path d="M 406 275.539062 L 452 275.539062 L 452 322 L 406 322 Z M 406 275.539062 " clip-rule="nonzero"/></clipPath><clipPath id="904518e2d9"><path d="M 451.65625 275.832031 L 451.65625 276.113281 C 426.867188 276.113281 406.464844 296.511719 406.464844 321.300781 C 406.464844 321.382812 406.40625 321.441406 406.328125 321.441406 C 406.246094 321.441406 406.1875 321.382812 406.1875 321.300781 C 406.1875 296.355469 426.71875 275.824219 451.667969 275.824219 C 451.746094 275.824219 451.804688 275.882812 451.804688 275.960938 C 451.804688 276.042969 451.746094 276.101562 451.667969 276.101562 C 451.585938 276.101562 451.527344 276.042969 451.527344 275.960938 C 451.527344 275.882812 451.585938 275.824219 451.667969 275.824219 Z M 451.65625 275.832031 " clip-rule="nonzero"/></clipPath><mask id="59482b0feb"><g filter="url(#de526182c1)"><rect x="-78.288" width="939.456" fill="#000000" y="-55.875" height="670.5" fill-opacity="0.3"/></g></mask><clipPath id="cf60ff939b"><path d="M 0.0117188 0.636719 L 45.832031 0.636719 L 45.832031 46.457031 L 0.0117188 46.457031 Z M 0.0117188 0.636719 " clip-rule="nonzero"/></clipPath><clipPath id="180853a3cd"><path d="M 45.65625 0.832031 L 45.65625 1.113281 C 20.867188 1.113281 0.464844 21.511719 0.464844 46.300781 C 0.464844 46.382812 0.40625 46.441406 0.328125 46.441406 C 0.246094 46.441406 0.1875 46.382812 0.1875 46.300781 C 0.1875 21.355469 20.71875 0.824219 45.667969 0.824219 C 45.746094 0.824219 45.804688 0.882812 45.804688 0.960938 C 45.804688 1.042969 45.746094 1.101562 45.667969 1.101562 C 45.585938 1.101562 45.527344 1.042969 45.527344 0.960938 C 45.527344 0.882812 45.585938 0.824219 45.667969 0.824219 Z M 45.65625 0.832031 " clip-rule="nonzero"/></clipPath><clipPath id="5653a2be80"><rect x="0" width="46" y="0" height="47"/></clipPath></defs><g clip-path="url(#2689580ddb)"><g transform="matrix(1, 0, 0, 1, 296, 321)"><g clip-path="url(#9e14132479)"><g clip-path="url(#dda2acae73)"><rect x="-468.2336" width="1127.3472" fill="#cd5f4e" height="804.600001" y="-443.925" fill-opacity="1"/></g></g></g></g><g clip-path="url(#6b56f0e9cc)"><g clip-path="url(#3ad4e08afd)"><g transform="matrix(1, 0, 0, 1, 296, 321)"><g clip-path="url(#bd49145ed6)"><g clip-path="url(#6f6a0c0c86)"><g clip-path="url(#e0d12babfb)"><rect x="-468.2336" width="1127.3472" fill="#cd5f4e" height="804.600001" y="-443.925" fill-opacity="1"/></g></g></g></g></g></g><g clip-path="url(#3fc954c5de)"><g transform="matrix(1, 0, 0, 1, 451, 321)"><g clip-path="url(#18283a22c0)"><g clip-path="url(#24a489ed2d)"><rect x="-623.2336" width="1127.3472" fill="#cd5f4e" height="804.600001" y="-443.925" fill-opacity="1"/></g></g></g></g><g clip-path="url(#d43ec53dc5)"><g clip-path="url(#115fd54c63)"><g transform="matrix(1, 0, 0, 1, 451, 321)"><g clip-path="url(#e50567da4d)"><g clip-path="url(#eefacd1855)"><g clip-path="url(#8f0bd48b42)"><rect x="-623.2336" width="1127.3472" fill="#cd5f4e" height="804.600001" y="-443.925" fill-opacity="1"/></g></g></g></g></g></g><g clip-path="url(#a613bcdcdf)"><g transform="matrix(1, 0, 0, 1, 92, 218)"><g clip-path="url(#3775950d53)"><g clip-path="url(#c8f66efb76)"><rect x="-264.2336" width="1127.3472" fill="#cd5f4e" height="804.600001" y="-340.925" fill-opacity="1"/></g></g></g></g><g clip-path="url(#f1bf5cf71c)"><g clip-path="url(#0ec966ab45)"><g transform="matrix(1, 0, 0, 1, 92, 218)"><g clip-path="url(#bb884488ed)"><g clip-path="url(#bd16d384a3)"><g clip-path="url(#faf9c6e51d)"><rect x="-264.2336" width="1127.3472" fill="#cd5f4e" height="804.600001" y="-340.925" fill-opacity="1"/></g></g></g></g></g></g><g clip-path="url(#f78baf6894)"><g transform="matrix(1, 0, 0, 1, 253, 218)"><g clip-path="url(#67c4457ca0)"><g clip-path="url(#32af6aa969)"><rect x="-425.2336" width="1127.3472" fill="#cd5f4e" height="804.600001" y="-340.925" fill-opacity="1"/></g></g></g></g><g clip-path="url(#61a4673fc2)"><g clip-path="url(#2d085d669a)"><g transform="matrix(1, 0, 0, 1, 253, 218)"><g clip-path="url(#0c43772e9d)"><g clip-path="url(#0b14f46029)"><g clip-path="url(#dd5e864230)"><rect x="-425.2336" width="1127.3472" fill="#cd5f4e" height="804.600001" y="-340.925" fill-opacity="1"/></g></g></g></g></g></g><g clip-path="url(#f875727dca)"><g transform="matrix(1, 0, 0, 1, 92, 470)"><g clip-path="url(#0a9544afb7)"><g clip-path="url(#226f0bfb75)"><rect x="-264.2336" width="1127.3472" fill="#ffffff" height="804.600001" y="-592.925" fill-opacity="1"/></g></g></g></g><g clip-path="url(#d9043b96b9)"><g clip-path="url(#c81b8073a8)"><g transform="matrix(1, 0, 0, 1, 92, 470)"><g clip-path="url(#f6467ce40f)"><g clip-path="url(#eb7d60ba36)"><g clip-path="url(#63a6904fa7)"><rect x="-264.2336" width="1127.3472" fill="#000000" height="804.600001" y="-592.925" fill-opacity="1"/></g></g></g></g></g></g><g clip-path="url(#8213065581)"><g transform="matrix(1, 0, 0, 1, 75, 88)"><g clip-path="url(#46f02e7f70)"><g clip-path="url(#e68a563ad0)"><rect x="-247.2336" width="1127.3472" fill="#ffffff" height="804.600001" y="-210.925" fill-opacity="1"/></g></g></g></g><g clip-path="url(#6dfe714688)"><g clip-path="url(#0cea1980e1)"><g transform="matrix(1, 0, 0, 1, 75, 87)"><g clip-path="url(#bab75b57b1)"><g clip-path="url(#2dd81f4ece)"><g clip-path="url(#942c0ad40c)"><rect x="-247.2336" width="1127.3472" fill="#000000" height="804.600001" y="-209.925" fill-opacity="1"/></g></g></g></g></g></g><g clip-path="url(#56ac49d520)"><g transform="matrix(1, 0, 0, 1, 285, 421)"><g clip-path="url(#a1f1b0f7c1)"><g clip-path="url(#37d9f5eb26)"><rect x="-457.2336" width="1127.3472" fill="#ffffff" height="804.600001" y="-543.925" fill-opacity="1"/></g></g></g></g><g clip-path="url(#fa546944a1)"><g clip-path="url(#cb3333b794)"><g transform="matrix(1, 0, 0, 1, 284, 421)"><g clip-path="url(#3f76136248)"><g clip-path="url(#dde6ce991f)"><g clip-path="url(#ea3c541fce)"><rect x="-456.2336" width="1127.3472" fill="#000000" height="804.600001" y="-543.925" fill-opacity="1"/></g></g></g></g></g></g><g clip-path="url(#a7886cd0c7)"><g clip-path="url(#d6a1f0d8c7)"><g transform="matrix(1, 0, 0, 1, 92, 473)"><g clip-path="url(#bd60bf71e2)"><g clip-path="url(#89b89dcdf6)"><g clip-path="url(#d2ed6eee2f)"><rect x="-264.2336" width="1127.3472" fill="#000000" height="804.600001" y="-595.925" fill-opacity="1"/></g></g></g></g></g></g><g clip-path="url(#b7be0da75d)"><g clip-path="url(#dd8a46e016)"><g transform="matrix(1, 0, 0, 1, 253, 173)"><g clip-path="url(#6768fda645)"><g clip-path="url(#e8e6410b9e)"><g clip-path="url(#15f3e2a18d)"><rect x="-425.2336" width="1127.3472" fill="#cd5f4e" height="804.600001" y="-295.925" fill-opacity="1"/></g></g></g></g></g></g><g clip-path="url(#8a59d6d69a)"><g clip-path="url(#b62387ec82)"><g mask="url(#1f840f616c)"><g transform="matrix(1, 0, 0, 1, 207, 173)"><g clip-path="url(#68f4cd4913)"><g clip-path="url(#e4d86ec6a3)"><g clip-path="url(#adc2e34fc0)"><rect x="-379.2336" width="1127.3472" fill="#cd5f4e" height="804.600001" y="-295.925" fill-opacity="1"/></g></g></g></g></g></g></g><g clip-path="url(#5d2e2b3960)"><g clip-path="url(#7f00cbd541)"><g transform="matrix(1, 0, 0, 1, 451, 275)"><g clip-path="url(#6949ab7589)"><g clip-path="url(#0a3a39eb68)"><g clip-path="url(#201e5c7137)"><rect x="-623.2336" width="1127.3472" fill="#cd5f4e" height="804.600001" y="-397.925" fill-opacity="1"/></g></g></g></g></g></g><g clip-path="url(#2d64f71363)"><g clip-path="url(#904518e2d9)"><g mask="url(#59482b0feb)"><g transform="matrix(1, 0, 0, 1, 406, 275)"><g clip-path="url(#5653a2be80)"><g clip-path="url(#cf60ff939b)"><g clip-path="url(#180853a3cd)"><rect x="-578.2336" width="1127.3472" fill="#cd5f4e" height="804.600001" y="-397.925" fill-opacity="1"/></g></g></g></g></g></g></g><g fill="#000000" fill-opacity="1"><g transform="translate(162.829033, 168.091957)"><g><path d="M 1.984375 0 L 1.984375 -17.046875 L 7.546875 -17.046875 C 9.398438 -17.046875 10.789062 -16.660156 11.71875 -15.890625 C 12.65625 -15.128906 13.125 -14 13.125 -12.5 C 13.125 -11.707031 12.894531 -11.003906 12.4375 -10.390625 C 11.988281 -9.773438 11.375 -9.300781 10.59375 -8.96875 C 11.519531 -8.707031 12.25 -8.21875 12.78125 -7.5 C 13.3125 -6.78125 13.578125 -5.921875 13.578125 -4.921875 C 13.578125 -3.390625 13.082031 -2.1875 12.09375 -1.3125 C 11.101562 -0.4375 9.703125 0 7.890625 0 Z M 4.234375 -7.96875 L 4.234375 -1.84375 L 7.9375 -1.84375 C 8.988281 -1.84375 9.816406 -2.113281 10.421875 -2.65625 C 11.023438 -3.195312 11.328125 -3.941406 11.328125 -4.890625 C 11.328125 -6.941406 10.207031 -7.96875 7.96875 -7.96875 Z M 4.234375 -9.78125 L 7.625 -9.78125 C 8.601562 -9.78125 9.390625 -10.023438 9.984375 -10.515625 C 10.578125 -11.003906 10.875 -11.671875 10.875 -12.515625 C 10.875 -13.453125 10.597656 -14.132812 10.046875 -14.5625 C 9.503906 -14.988281 8.671875 -15.203125 7.546875 -15.203125 L 4.234375 -15.203125 Z M 4.234375 -9.78125 "/></g></g><g transform="translate(177.763757, 168.091957)"><g><path d="M 9.46875 0 C 9.34375 -0.25 9.238281 -0.691406 9.15625 -1.328125 C 8.144531 -0.285156 6.941406 0.234375 5.546875 0.234375 C 4.296875 0.234375 3.269531 -0.117188 2.46875 -0.828125 C 1.675781 -1.535156 1.28125 -2.429688 1.28125 -3.515625 C 1.28125 -4.835938 1.78125 -5.863281 2.78125 -6.59375 C 3.78125 -7.320312 5.191406 -7.6875 7.015625 -7.6875 L 9.125 -7.6875 L 9.125 -8.671875 C 9.125 -9.429688 8.894531 -10.035156 8.4375 -10.484375 C 7.988281 -10.929688 7.320312 -11.15625 6.4375 -11.15625 C 5.664062 -11.15625 5.019531 -10.957031 4.5 -10.5625 C 3.976562 -10.175781 3.71875 -9.707031 3.71875 -9.15625 L 1.53125 -9.15625 C 1.53125 -9.789062 1.753906 -10.398438 2.203125 -10.984375 C 2.648438 -11.578125 3.257812 -12.046875 4.03125 -12.390625 C 4.800781 -12.734375 5.644531 -12.90625 6.5625 -12.90625 C 8.03125 -12.90625 9.175781 -12.539062 10 -11.8125 C 10.832031 -11.082031 11.265625 -10.078125 11.296875 -8.796875 L 11.296875 -2.96875 C 11.296875 -1.800781 11.441406 -0.875 11.734375 -0.1875 L 11.734375 0 Z M 5.875 -1.65625 C 6.550781 -1.65625 7.191406 -1.828125 7.796875 -2.171875 C 8.410156 -2.523438 8.851562 -2.984375 9.125 -3.546875 L 9.125 -6.140625 L 7.421875 -6.140625 C 4.765625 -6.140625 3.4375 -5.363281 3.4375 -3.8125 C 3.4375 -3.132812 3.660156 -2.601562 4.109375 -2.21875 C 4.566406 -1.84375 5.15625 -1.65625 5.875 -1.65625 Z M 5.875 -1.65625 "/></g></g><g transform="translate(190.812605, 168.091957)"><g><path d="M 1.109375 -6.4375 C 1.109375 -8.382812 1.566406 -9.945312 2.484375 -11.125 C 3.410156 -12.3125 4.617188 -12.90625 6.109375 -12.90625 C 7.597656 -12.90625 8.773438 -12.398438 9.640625 -11.390625 L 9.640625 -17.984375 L 11.8125 -17.984375 L 11.8125 0 L 9.8125 0 L 9.703125 -1.359375 C 8.835938 -0.296875 7.632812 0.234375 6.09375 0.234375 C 4.625 0.234375 3.425781 -0.363281 2.5 -1.5625 C 1.570312 -2.769531 1.109375 -4.34375 1.109375 -6.28125 Z M 3.28125 -6.1875 C 3.28125 -4.757812 3.578125 -3.640625 4.171875 -2.828125 C 4.765625 -2.015625 5.582031 -1.609375 6.625 -1.609375 C 8 -1.609375 9.003906 -2.222656 9.640625 -3.453125 L 9.640625 -9.28125 C 8.992188 -10.46875 8 -11.0625 6.65625 -11.0625 C 5.59375 -11.0625 4.765625 -10.648438 4.171875 -9.828125 C 3.578125 -9.015625 3.28125 -7.800781 3.28125 -6.1875 Z M 3.28125 -6.1875 "/></g></g></g><g fill="#000000" fill-opacity="1"><g transform="translate(143.438959, 341.498344)"><g><path d="M 5.65625 -5.375 L 5.984375 -3.125 L 6.46875 -5.15625 L 9.84375 -17.046875 L 11.734375 -17.046875 L 15.03125 -5.15625 L 15.5 -3.09375 L 15.859375 -5.390625 L 18.5 -17.046875 L 20.765625 -17.046875 L 16.625 0 L 14.578125 0 L 11.0625 -12.421875 L 10.796875 -13.71875 L 10.53125 -12.421875 L 6.890625 0 L 4.84375 0 L 0.71875 -17.046875 L 2.96875 -17.046875 Z M 5.65625 -5.375 "/></g></g><g transform="translate(164.722404, 341.498344)"><g><path d="M 1.0625 -6.453125 C 1.0625 -7.691406 1.304688 -8.804688 1.796875 -9.796875 C 2.285156 -10.796875 2.960938 -11.5625 3.828125 -12.09375 C 4.703125 -12.632812 5.695312 -12.90625 6.8125 -12.90625 C 8.539062 -12.90625 9.9375 -12.304688 11 -11.109375 C 12.0625 -9.921875 12.59375 -8.332031 12.59375 -6.34375 L 12.59375 -6.1875 C 12.59375 -4.957031 12.359375 -3.851562 11.890625 -2.875 C 11.421875 -1.894531 10.742188 -1.128906 9.859375 -0.578125 C 8.984375 -0.0351562 7.976562 0.234375 6.84375 0.234375 C 5.125 0.234375 3.726562 -0.359375 2.65625 -1.546875 C 1.59375 -2.742188 1.0625 -4.328125 1.0625 -6.296875 Z M 3.25 -6.1875 C 3.25 -4.789062 3.570312 -3.664062 4.21875 -2.8125 C 4.875 -1.957031 5.75 -1.53125 6.84375 -1.53125 C 7.9375 -1.53125 8.804688 -1.960938 9.453125 -2.828125 C 10.109375 -3.691406 10.4375 -4.898438 10.4375 -6.453125 C 10.4375 -7.835938 10.101562 -8.960938 9.4375 -9.828125 C 8.78125 -10.691406 7.90625 -11.125 6.8125 -11.125 C 5.75 -11.125 4.890625 -10.695312 4.234375 -9.84375 C 3.578125 -9 3.25 -7.78125 3.25 -6.1875 Z M 3.25 -6.1875 "/></g></g><g transform="translate(178.403782, 341.498344)"><g><path d="M 3.8125 -11.140625 C 4.769531 -12.316406 6.015625 -12.90625 7.546875 -12.90625 C 10.234375 -12.90625 11.585938 -11.394531 11.609375 -8.375 L 11.609375 0 L 9.4375 0 L 9.4375 -8.390625 C 9.425781 -9.296875 9.21875 -9.96875 8.8125 -10.40625 C 8.40625 -10.84375 7.765625 -11.0625 6.890625 -11.0625 C 6.191406 -11.0625 5.578125 -10.875 5.046875 -10.5 C 4.515625 -10.125 4.101562 -9.632812 3.8125 -9.03125 L 3.8125 0 L 1.640625 0 L 1.640625 -17.984375 L 3.8125 -17.984375 Z M 3.8125 -11.140625 "/></g></g><g transform="translate(191.616619, 341.498344)"><g><path d="M 3.6875 -12.671875 L 3.765625 -11.078125 C 4.734375 -12.296875 5.992188 -12.90625 7.546875 -12.90625 C 10.234375 -12.90625 11.585938 -11.394531 11.609375 -8.375 L 11.609375 0 L 9.4375 0 L 9.4375 -8.390625 C 9.425781 -9.296875 9.21875 -9.96875 8.8125 -10.40625 C 8.40625 -10.84375 7.765625 -11.0625 6.890625 -11.0625 C 6.191406 -11.0625 5.578125 -10.875 5.046875 -10.5 C 4.515625 -10.125 4.101562 -9.632812 3.8125 -9.03125 L 3.8125 0 L 1.640625 0 L 1.640625 -12.671875 Z M 3.6875 -12.671875 "/></g></g><g transform="translate(204.852884, 341.498344)"><g><path d="M 6.890625 0.234375 C 5.179688 0.234375 3.785156 -0.328125 2.703125 -1.453125 C 1.628906 -2.585938 1.09375 -4.097656 1.09375 -5.984375 L 1.09375 -6.375 C 1.09375 -7.632812 1.332031 -8.757812 1.8125 -9.75 C 2.289062 -10.738281 2.960938 -11.507812 3.828125 -12.0625 C 4.691406 -12.625 5.625 -12.90625 6.625 -12.90625 C 8.269531 -12.90625 9.550781 -12.363281 10.46875 -11.28125 C 11.382812 -10.195312 11.84375 -8.640625 11.84375 -6.609375 L 11.84375 -5.71875 L 3.25 -5.71875 C 3.28125 -4.46875 3.644531 -3.457031 4.34375 -2.6875 C 5.050781 -1.914062 5.941406 -1.53125 7.015625 -1.53125 C 7.773438 -1.53125 8.421875 -1.6875 8.953125 -2 C 9.484375 -2.3125 9.953125 -2.726562 10.359375 -3.25 L 11.671875 -2.21875 C 10.609375 -0.582031 9.015625 0.234375 6.890625 0.234375 Z M 6.625 -11.125 C 5.75 -11.125 5.015625 -10.804688 4.421875 -10.171875 C 3.828125 -9.535156 3.460938 -8.644531 3.328125 -7.5 L 9.671875 -7.5 L 9.671875 -7.65625 C 9.609375 -8.757812 9.3125 -9.613281 8.78125 -10.21875 C 8.25 -10.820312 7.53125 -11.125 6.625 -11.125 Z M 6.625 -11.125 "/></g></g><g transform="translate(217.562041, 341.498344)"><g><path d="M 3.6875 -12.671875 L 3.765625 -11.078125 C 4.734375 -12.296875 5.992188 -12.90625 7.546875 -12.90625 C 10.234375 -12.90625 11.585938 -11.394531 11.609375 -8.375 L 11.609375 0 L 9.4375 0 L 9.4375 -8.390625 C 9.425781 -9.296875 9.21875 -9.96875 8.8125 -10.40625 C 8.40625 -10.84375 7.765625 -11.0625 6.890625 -11.0625 C 6.191406 -11.0625 5.578125 -10.875 5.046875 -10.5 C 4.515625 -10.125 4.101562 -9.632812 3.8125 -9.03125 L 3.8125 0 L 1.640625 0 L 1.640625 -12.671875 Z M 3.6875 -12.671875 "/></g></g></g><g fill="#000000" fill-opacity="1"><g transform="translate(363.601192, 407.546074)"><g><path d="M 1.984375 0 L 1.984375 -17.046875 L 6.796875 -17.046875 C 8.273438 -17.046875 9.582031 -16.71875 10.71875 -16.0625 C 11.863281 -15.40625 12.742188 -14.472656 13.359375 -13.265625 C 13.984375 -12.054688 14.300781 -10.664062 14.3125 -9.09375 L 14.3125 -8.015625 C 14.3125 -6.398438 14 -4.988281 13.375 -3.78125 C 12.757812 -2.570312 11.875 -1.640625 10.71875 -0.984375 C 9.570312 -0.335938 8.234375 -0.0078125 6.703125 0 Z M 4.234375 -15.203125 L 4.234375 -1.84375 L 6.59375 -1.84375 C 8.320312 -1.84375 9.664062 -2.378906 10.625 -3.453125 C 11.59375 -4.535156 12.078125 -6.070312 12.078125 -8.0625 L 12.078125 -9.046875 C 12.078125 -10.984375 11.625 -12.488281 10.71875 -13.5625 C 9.8125 -14.632812 8.519531 -15.179688 6.84375 -15.203125 Z M 4.234375 -15.203125 "/></g></g><g transform="translate(379.332434, 407.546074)"><g><path d="M 4 0 L 1.828125 0 L 1.828125 -12.671875 L 4 -12.671875 Z M 1.65625 -16.03125 C 1.65625 -16.382812 1.757812 -16.679688 1.96875 -16.921875 C 2.1875 -17.160156 2.503906 -17.28125 2.921875 -17.28125 C 3.347656 -17.28125 3.671875 -17.160156 3.890625 -16.921875 C 4.109375 -16.679688 4.21875 -16.382812 4.21875 -16.03125 C 4.21875 -15.675781 4.109375 -15.378906 3.890625 -15.140625 C 3.671875 -14.910156 3.347656 -14.796875 2.921875 -14.796875 C 2.503906 -14.796875 2.1875 -14.910156 1.96875 -15.140625 C 1.757812 -15.378906 1.65625 -15.675781 1.65625 -16.03125 Z M 1.65625 -16.03125 "/></g></g><g transform="translate(385.154048, 407.546074)"><g><path d="M 6.890625 0.234375 C 5.179688 0.234375 3.785156 -0.328125 2.703125 -1.453125 C 1.628906 -2.585938 1.09375 -4.097656 1.09375 -5.984375 L 1.09375 -6.375 C 1.09375 -7.632812 1.332031 -8.757812 1.8125 -9.75 C 2.289062 -10.738281 2.960938 -11.507812 3.828125 -12.0625 C 4.691406 -12.625 5.625 -12.90625 6.625 -12.90625 C 8.269531 -12.90625 9.550781 -12.363281 10.46875 -11.28125 C 11.382812 -10.195312 11.84375 -8.640625 11.84375 -6.609375 L 11.84375 -5.71875 L 3.25 -5.71875 C 3.28125 -4.46875 3.644531 -3.457031 4.34375 -2.6875 C 5.050781 -1.914062 5.941406 -1.53125 7.015625 -1.53125 C 7.773438 -1.53125 8.421875 -1.6875 8.953125 -2 C 9.484375 -2.3125 9.953125 -2.726562 10.359375 -3.25 L 11.671875 -2.21875 C 10.609375 -0.582031 9.015625 0.234375 6.890625 0.234375 Z M 6.625 -11.125 C 5.75 -11.125 5.015625 -10.804688 4.421875 -10.171875 C 3.828125 -9.535156 3.460938 -8.644531 3.328125 -7.5 L 9.671875 -7.5 L 9.671875 -7.65625 C 9.609375 -8.757812 9.3125 -9.613281 8.78125 -10.21875 C 8.25 -10.820312 7.53125 -11.125 6.625 -11.125 Z M 6.625 -11.125 "/></g></g><g transform="translate(397.863205, 407.546074)"><g><path d="M 4 0 L 1.828125 0 L 1.828125 -17.984375 L 4 -17.984375 Z M 4 0 "/></g></g><g transform="translate(403.684818, 407.546074)"><g><path d="M 6.890625 0.234375 C 5.179688 0.234375 3.785156 -0.328125 2.703125 -1.453125 C 1.628906 -2.585938 1.09375 -4.097656 1.09375 -5.984375 L 1.09375 -6.375 C 1.09375 -7.632812 1.332031 -8.757812 1.8125 -9.75 C 2.289062 -10.738281 2.960938 -11.507812 3.828125 -12.0625 C 4.691406 -12.625 5.625 -12.90625 6.625 -12.90625 C 8.269531 -12.90625 9.550781 -12.363281 10.46875 -11.28125 C 11.382812 -10.195312 11.84375 -8.640625 11.84375 -6.609375 L 11.84375 -5.71875 L 3.25 -5.71875 C 3.28125 -4.46875 3.644531 -3.457031 4.34375 -2.6875 C 5.050781 -1.914062 5.941406 -1.53125 7.015625 -1.53125 C 7.773438 -1.53125 8.421875 -1.6875 8.953125 -2 C 9.484375 -2.3125 9.953125 -2.726562 10.359375 -3.25 L 11.671875 -2.21875 C 10.609375 -0.582031 9.015625 0.234375 6.890625 0.234375 Z M 6.625 -11.125 C 5.75 -11.125 5.015625 -10.804688 4.421875 -10.171875 C 3.828125 -9.535156 3.460938 -8.644531 3.328125 -7.5 L 9.671875 -7.5 L 9.671875 -7.65625 C 9.609375 -8.757812 9.3125 -9.613281 8.78125 -10.21875 C 8.25 -10.820312 7.53125 -11.125 6.625 -11.125 Z M 6.625 -11.125 "/></g></g></g><g fill="#000000" fill-opacity="1"><g transform="translate(352.76555, 236.094774)"><g><path d="M 3.671875 -1.84375 L 13.421875 -1.84375 L 13.421875 0 L 1 0 L 1 -1.6875 L 10.359375 -15.203125 L 1.15625 -15.203125 L 1.15625 -17.046875 L 13.046875 -17.046875 L 13.046875 -15.40625 Z M 3.671875 -1.84375 "/></g></g><g transform="translate(367.126312, 236.094774)"><g><path d="M 4 0 L 1.828125 0 L 1.828125 -12.671875 L 4 -12.671875 Z M 1.65625 -16.03125 C 1.65625 -16.382812 1.757812 -16.679688 1.96875 -16.921875 C 2.1875 -17.160156 2.503906 -17.28125 2.921875 -17.28125 C 3.347656 -17.28125 3.671875 -17.160156 3.890625 -16.921875 C 4.109375 -16.679688 4.21875 -16.382812 4.21875 -16.03125 C 4.21875 -15.675781 4.109375 -15.378906 3.890625 -15.140625 C 3.671875 -14.910156 3.347656 -14.796875 2.921875 -14.796875 C 2.503906 -14.796875 2.1875 -14.910156 1.96875 -15.140625 C 1.757812 -15.378906 1.65625 -15.675781 1.65625 -16.03125 Z M 1.65625 -16.03125 "/></g></g><g transform="translate(372.947925, 236.094774)"><g><path d="M 3.671875 -12.671875 L 3.734375 -11.265625 C 4.660156 -12.359375 5.914062 -12.90625 7.5 -12.90625 C 9.269531 -12.90625 10.472656 -12.226562 11.109375 -10.875 C 11.535156 -11.476562 12.082031 -11.96875 12.75 -12.34375 C 13.425781 -12.71875 14.226562 -12.90625 15.15625 -12.90625 C 17.9375 -12.90625 19.347656 -11.429688 19.390625 -8.484375 L 19.390625 0 L 17.234375 0 L 17.234375 -8.359375 C 17.234375 -9.265625 17.023438 -9.941406 16.609375 -10.390625 C 16.191406 -10.835938 15.492188 -11.0625 14.515625 -11.0625 C 13.710938 -11.0625 13.046875 -10.820312 12.515625 -10.34375 C 11.984375 -9.863281 11.675781 -9.21875 11.59375 -8.40625 L 11.59375 0 L 9.421875 0 L 9.421875 -8.296875 C 9.421875 -10.140625 8.515625 -11.0625 6.703125 -11.0625 C 5.285156 -11.0625 4.316406 -10.457031 3.796875 -9.25 L 3.796875 0 L 1.625 0 L 1.625 -12.671875 Z M 3.671875 -12.671875 "/></g></g><g transform="translate(393.973673, 236.094774)"><g><path d="M 3.671875 -12.671875 L 3.734375 -11.265625 C 4.660156 -12.359375 5.914062 -12.90625 7.5 -12.90625 C 9.269531 -12.90625 10.472656 -12.226562 11.109375 -10.875 C 11.535156 -11.476562 12.082031 -11.96875 12.75 -12.34375 C 13.425781 -12.71875 14.226562 -12.90625 15.15625 -12.90625 C 17.9375 -12.90625 19.347656 -11.429688 19.390625 -8.484375 L 19.390625 0 L 17.234375 0 L 17.234375 -8.359375 C 17.234375 -9.265625 17.023438 -9.941406 16.609375 -10.390625 C 16.191406 -10.835938 15.492188 -11.0625 14.515625 -11.0625 C 13.710938 -11.0625 13.046875 -10.820312 12.515625 -10.34375 C 11.984375 -9.863281 11.675781 -9.21875 11.59375 -8.40625 L 11.59375 0 L 9.421875 0 L 9.421875 -8.296875 C 9.421875 -10.140625 8.515625 -11.0625 6.703125 -11.0625 C 5.285156 -11.0625 4.316406 -10.457031 3.796875 -9.25 L 3.796875 0 L 1.625 0 L 1.625 -12.671875 Z M 3.671875 -12.671875 "/></g></g><g transform="translate(414.999421, 236.094774)"><g><path d="M 6.890625 0.234375 C 5.179688 0.234375 3.785156 -0.328125 2.703125 -1.453125 C 1.628906 -2.585938 1.09375 -4.097656 1.09375 -5.984375 L 1.09375 -6.375 C 1.09375 -7.632812 1.332031 -8.757812 1.8125 -9.75 C 2.289062 -10.738281 2.960938 -11.507812 3.828125 -12.0625 C 4.691406 -12.625 5.625 -12.90625 6.625 -12.90625 C 8.269531 -12.90625 9.550781 -12.363281 10.46875 -11.28125 C 11.382812 -10.195312 11.84375 -8.640625 11.84375 -6.609375 L 11.84375 -5.71875 L 3.25 -5.71875 C 3.28125 -4.46875 3.644531 -3.457031 4.34375 -2.6875 C 5.050781 -1.914062 5.941406 -1.53125 7.015625 -1.53125 C 7.773438 -1.53125 8.421875 -1.6875 8.953125 -2 C 9.484375 -2.3125 9.953125 -2.726562 10.359375 -3.25 L 11.671875 -2.21875 C 10.609375 -0.582031 9.015625 0.234375 6.890625 0.234375 Z M 6.625 -11.125 C 5.75 -11.125 5.015625 -10.804688 4.421875 -10.171875 C 3.828125 -9.535156 3.460938 -8.644531 3.328125 -7.5 L 9.671875 -7.5 L 9.671875 -7.65625 C 9.609375 -8.757812 9.3125 -9.613281 8.78125 -10.21875 C 8.25 -10.820312 7.53125 -11.125 6.625 -11.125 Z M 6.625 -11.125 "/></g></g><g transform="translate(427.708578, 236.094774)"><g><path d="M 7.765625 -10.734375 C 7.429688 -10.785156 7.078125 -10.8125 6.703125 -10.8125 C 5.273438 -10.8125 4.3125 -10.207031 3.8125 -9 L 3.8125 0 L 1.640625 0 L 1.640625 -12.671875 L 3.75 -12.671875 L 3.78125 -11.203125 C 4.488281 -12.335938 5.492188 -12.90625 6.796875 -12.90625 C 7.222656 -12.90625 7.546875 -12.847656 7.765625 -12.734375 Z M 7.765625 -10.734375 "/></g></g></g><g fill="#000000" fill-opacity="1"><g transform="translate(551.320954, 298.430144)"><g><path d="M 7 -7.59375 C 5.070312 -8.15625 3.664062 -8.835938 2.78125 -9.640625 C 1.90625 -10.453125 1.46875 -11.453125 1.46875 -12.640625 C 1.46875 -13.984375 2.003906 -15.09375 3.078125 -15.96875 C 4.160156 -16.84375 5.554688 -17.28125 7.265625 -17.28125 C 8.441406 -17.28125 9.488281 -17.050781 10.40625 -16.59375 C 11.320312 -16.144531 12.03125 -15.519531 12.53125 -14.71875 C 13.039062 -13.925781 13.296875 -13.0625 13.296875 -12.125 L 11.03125 -12.125 C 11.03125 -13.15625 10.703125 -13.960938 10.046875 -14.546875 C 9.390625 -15.140625 8.460938 -15.4375 7.265625 -15.4375 C 6.160156 -15.4375 5.296875 -15.191406 4.671875 -14.703125 C 4.054688 -14.210938 3.75 -13.535156 3.75 -12.671875 C 3.75 -11.972656 4.039062 -11.382812 4.625 -10.90625 C 5.21875 -10.425781 6.222656 -9.988281 7.640625 -9.59375 C 9.054688 -9.195312 10.164062 -8.753906 10.96875 -8.265625 C 11.769531 -7.785156 12.363281 -7.226562 12.75 -6.59375 C 13.132812 -5.957031 13.328125 -5.203125 13.328125 -4.328125 C 13.328125 -2.953125 12.785156 -1.847656 11.703125 -1.015625 C 10.628906 -0.179688 9.191406 0.234375 7.390625 0.234375 C 6.222656 0.234375 5.128906 0.0078125 4.109375 -0.4375 C 3.097656 -0.882812 2.316406 -1.5 1.765625 -2.28125 C 1.210938 -3.0625 0.9375 -3.945312 0.9375 -4.9375 L 3.203125 -4.9375 C 3.203125 -3.90625 3.582031 -3.09375 4.34375 -2.5 C 5.101562 -1.90625 6.117188 -1.609375 7.390625 -1.609375 C 8.578125 -1.609375 9.484375 -1.847656 10.109375 -2.328125 C 10.742188 -2.816406 11.0625 -3.476562 11.0625 -4.3125 C 11.0625 -5.144531 10.769531 -5.789062 10.1875 -6.25 C 9.601562 -6.707031 8.539062 -7.15625 7 -7.59375 Z M 7 -7.59375 "/></g></g><g transform="translate(565.552867, 298.430144)"><g><path d="M 6.71875 -1.53125 C 7.488281 -1.53125 8.160156 -1.765625 8.734375 -2.234375 C 9.316406 -2.703125 9.640625 -3.289062 9.703125 -4 L 11.765625 -4 C 11.722656 -3.269531 11.46875 -2.578125 11 -1.921875 C 10.539062 -1.265625 9.925781 -0.738281 9.15625 -0.34375 C 8.394531 0.0390625 7.582031 0.234375 6.71875 0.234375 C 5 0.234375 3.628906 -0.335938 2.609375 -1.484375 C 1.585938 -2.640625 1.078125 -4.21875 1.078125 -6.21875 L 1.078125 -6.578125 C 1.078125 -7.816406 1.300781 -8.914062 1.75 -9.875 C 2.207031 -10.832031 2.859375 -11.578125 3.703125 -12.109375 C 4.554688 -12.640625 5.554688 -12.90625 6.703125 -12.90625 C 8.128906 -12.90625 9.3125 -12.476562 10.25 -11.625 C 11.195312 -10.78125 11.703125 -9.675781 11.765625 -8.3125 L 9.703125 -8.3125 C 9.640625 -9.132812 9.328125 -9.804688 8.765625 -10.328125 C 8.210938 -10.859375 7.523438 -11.125 6.703125 -11.125 C 5.609375 -11.125 4.757812 -10.726562 4.15625 -9.9375 C 3.550781 -9.144531 3.25 -8 3.25 -6.5 L 3.25 -6.09375 C 3.25 -4.632812 3.546875 -3.507812 4.140625 -2.71875 C 4.742188 -1.925781 5.601562 -1.53125 6.71875 -1.53125 Z M 6.71875 -1.53125 "/></g></g><g transform="translate(578.109748, 298.430144)"><g><path d="M 3.8125 -11.140625 C 4.769531 -12.316406 6.015625 -12.90625 7.546875 -12.90625 C 10.234375 -12.90625 11.585938 -11.394531 11.609375 -8.375 L 11.609375 0 L 9.4375 0 L 9.4375 -8.390625 C 9.425781 -9.296875 9.21875 -9.96875 8.8125 -10.40625 C 8.40625 -10.84375 7.765625 -11.0625 6.890625 -11.0625 C 6.191406 -11.0625 5.578125 -10.875 5.046875 -10.5 C 4.515625 -10.125 4.101562 -9.632812 3.8125 -9.03125 L 3.8125 0 L 1.640625 0 L 1.640625 -17.984375 L 3.8125 -17.984375 Z M 3.8125 -11.140625 "/></g></g><g transform="translate(591.322586, 298.430144)"><g><path d="M 4 0 L 1.828125 0 L 1.828125 -17.984375 L 4 -17.984375 Z M 4 0 "/></g></g><g transform="translate(597.1442, 298.430144)"><g><path d="M 9.46875 0 C 9.34375 -0.25 9.238281 -0.691406 9.15625 -1.328125 C 8.144531 -0.285156 6.941406 0.234375 5.546875 0.234375 C 4.296875 0.234375 3.269531 -0.117188 2.46875 -0.828125 C 1.675781 -1.535156 1.28125 -2.429688 1.28125 -3.515625 C 1.28125 -4.835938 1.78125 -5.863281 2.78125 -6.59375 C 3.78125 -7.320312 5.191406 -7.6875 7.015625 -7.6875 L 9.125 -7.6875 L 9.125 -8.671875 C 9.125 -9.429688 8.894531 -10.035156 8.4375 -10.484375 C 7.988281 -10.929688 7.320312 -11.15625 6.4375 -11.15625 C 5.664062 -11.15625 5.019531 -10.957031 4.5 -10.5625 C 3.976562 -10.175781 3.71875 -9.707031 3.71875 -9.15625 L 1.53125 -9.15625 C 1.53125 -9.789062 1.753906 -10.398438 2.203125 -10.984375 C 2.648438 -11.578125 3.257812 -12.046875 4.03125 -12.390625 C 4.800781 -12.734375 5.644531 -12.90625 6.5625 -12.90625 C 8.03125 -12.90625 9.175781 -12.539062 10 -11.8125 C 10.832031 -11.082031 11.265625 -10.078125 11.296875 -8.796875 L 11.296875 -2.96875 C 11.296875 -1.800781 11.441406 -0.875 11.734375 -0.1875 L 11.734375 0 Z M 5.875 -1.65625 C 6.550781 -1.65625 7.191406 -1.828125 7.796875 -2.171875 C 8.410156 -2.523438 8.851562 -2.984375 9.125 -3.546875 L 9.125 -6.140625 L 7.421875 -6.140625 C 4.765625 -6.140625 3.4375 -5.363281 3.4375 -3.8125 C 3.4375 -3.132812 3.660156 -2.601562 4.109375 -2.21875 C 4.566406 -1.84375 5.15625 -1.65625 5.875 -1.65625 Z M 5.875 -1.65625 "/></g></g><g transform="translate(610.193048, 298.430144)"><g><path d="M 2.703125 0 L 2.703125 -11 L 0.703125 -11 L 0.703125 -12.671875 L 2.703125 -12.671875 L 2.703125 -13.96875 C 2.703125 -15.332031 3.066406 -16.382812 3.796875 -17.125 C 4.523438 -17.863281 5.550781 -18.234375 6.875 -18.234375 C 7.375 -18.234375 7.867188 -18.164062 8.359375 -18.03125 L 8.25 -16.28125 C 7.875 -16.351562 7.484375 -16.390625 7.078125 -16.390625 C 6.367188 -16.390625 5.820312 -16.179688 5.4375 -15.765625 C 5.0625 -15.359375 4.875 -14.769531 4.875 -14 L 4.875 -12.671875 L 7.578125 -12.671875 L 7.578125 -11 L 4.875 -11 L 4.875 0 Z M 2.703125 0 "/></g></g><g transform="translate(618.521353, 298.430144)"><g><path d="M 6.890625 0.234375 C 5.179688 0.234375 3.785156 -0.328125 2.703125 -1.453125 C 1.628906 -2.585938 1.09375 -4.097656 1.09375 -5.984375 L 1.09375 -6.375 C 1.09375 -7.632812 1.332031 -8.757812 1.8125 -9.75 C 2.289062 -10.738281 2.960938 -11.507812 3.828125 -12.0625 C 4.691406 -12.625 5.625 -12.90625 6.625 -12.90625 C 8.269531 -12.90625 9.550781 -12.363281 10.46875 -11.28125 C 11.382812 -10.195312 11.84375 -8.640625 11.84375 -6.609375 L 11.84375 -5.71875 L 3.25 -5.71875 C 3.28125 -4.46875 3.644531 -3.457031 4.34375 -2.6875 C 5.050781 -1.914062 5.941406 -1.53125 7.015625 -1.53125 C 7.773438 -1.53125 8.421875 -1.6875 8.953125 -2 C 9.484375 -2.3125 9.953125 -2.726562 10.359375 -3.25 L 11.671875 -2.21875 C 10.609375 -0.582031 9.015625 0.234375 6.890625 0.234375 Z M 6.625 -11.125 C 5.75 -11.125 5.015625 -10.804688 4.421875 -10.171875 C 3.828125 -9.535156 3.460938 -8.644531 3.328125 -7.5 L 9.671875 -7.5 L 9.671875 -7.65625 C 9.609375 -8.757812 9.3125 -9.613281 8.78125 -10.21875 C 8.25 -10.820312 7.53125 -11.125 6.625 -11.125 Z M 6.625 -11.125 "/></g></g><g transform="translate(631.23051, 298.430144)"><g><path d="M 3.6875 -12.671875 L 3.765625 -11.078125 C 4.734375 -12.296875 5.992188 -12.90625 7.546875 -12.90625 C 10.234375 -12.90625 11.585938 -11.394531 11.609375 -8.375 L 11.609375 0 L 9.4375 0 L 9.4375 -8.390625 C 9.425781 -9.296875 9.21875 -9.96875 8.8125 -10.40625 C 8.40625 -10.84375 7.765625 -11.0625 6.890625 -11.0625 C 6.191406 -11.0625 5.578125 -10.875 5.046875 -10.5 C 4.515625 -10.125 4.101562 -9.632812 3.8125 -9.03125 L 3.8125 0 L 1.640625 0 L 1.640625 -12.671875 Z M 3.6875 -12.671875 "/></g></g></g></svg>