<svg xmlns="http://www.w3.org/2000/svg" xmlns:xlink="http://www.w3.org/1999/xlink" width="1044" zoomAndPan="magnify" viewBox="0 0 782.88 558.75" height="745" preserveAspectRatio="xMidYMid meet" version="1.0"><defs><g/><clipPath id="513cc5fcb1"><path d="M 76.875 86.683594 L 705.882812 86.683594 L 705.882812 472.023438 L 76.875 472.023438 Z M 76.875 86.683594 " clip-rule="nonzero"/></clipPath><clipPath id="c5704dbc76"><path d="M 0.875 0.683594 L 629.882812 0.683594 L 629.882812 386.023438 L 0.875 386.023438 Z M 0.875 0.683594 " clip-rule="nonzero"/></clipPath><clipPath id="1a710dde3e"><rect x="0" width="630" y="0" height="387"/></clipPath><clipPath id="d046603f4b"><path d="M 76.503906 86.316406 L 707 86.316406 L 707 472.394531 L 76.503906 472.394531 Z M 76.503906 86.316406 " clip-rule="nonzero"/></clipPath><clipPath id="b656e2fd82"><path d="M 76.875 86.546875 L 705.882812 86.546875 C 705.964844 86.546875 706.023438 86.605469 706.023438 86.683594 L 706.023438 472.023438 C 706.023438 472.101562 705.964844 472.164062 705.882812 472.164062 L 76.875 472.164062 C 76.796875 472.164062 76.734375 472.101562 76.734375 472.023438 L 76.734375 86.683594 C 76.734375 86.605469 76.796875 86.546875 76.875 86.546875 M 76.875 86.835938 L 76.875 86.683594 L 77.015625 86.683594 L 77.015625 472.023438 L 76.875 472.023438 L 76.875 471.882812 L 705.882812 471.882812 L 705.882812 472.023438 L 705.742188 472.023438 L 705.742188 86.683594 L 705.882812 86.683594 L 705.882812 86.824219 L 76.875 86.824219 Z M 76.875 86.835938 " clip-rule="nonzero"/></clipPath><clipPath id="f0763600dc"><path d="M 0.640625 0.363281 L 630.121094 0.363281 L 630.121094 386.347656 L 0.640625 386.347656 Z M 0.640625 0.363281 " clip-rule="nonzero"/></clipPath><clipPath id="791598407e"><path d="M 0.875 0.546875 L 629.882812 0.546875 C 629.964844 0.546875 630.023438 0.605469 630.023438 0.683594 L 630.023438 386.023438 C 630.023438 386.101562 629.964844 386.164062 629.882812 386.164062 L 0.875 386.164062 C 0.796875 386.164062 0.734375 386.101562 0.734375 386.023438 L 0.734375 0.683594 C 0.734375 0.605469 0.796875 0.546875 0.875 0.546875 M 0.875 0.835938 L 0.875 0.683594 L 1.015625 0.683594 L 1.015625 386.023438 L 0.875 386.023438 L 0.875 385.882812 L 629.882812 385.882812 L 629.882812 386.023438 L 629.742188 386.023438 L 629.742188 0.683594 L 629.882812 0.683594 L 629.882812 0.824219 L 0.875 0.824219 Z M 0.875 0.835938 " clip-rule="nonzero"/></clipPath><clipPath id="5c2f7e23bd"><rect x="0" width="631" y="0" height="387"/></clipPath><clipPath id="05c2fc50a4"><path d="M 93.878906 469.195312 L 688.878906 469.195312 L 688.878906 472.023438 L 93.878906 472.023438 Z M 93.878906 469.195312 " clip-rule="nonzero"/></clipPath><clipPath id="5d9027fb78"><path d="M 0.878906 0.195312 L 595.878906 0.195312 L 595.878906 3.023438 L 0.878906 3.023438 Z M 0.878906 0.195312 " clip-rule="nonzero"/></clipPath><clipPath id="0df6f1e477"><rect x="0" width="596" y="0" height="4"/></clipPath><clipPath id="d92a642542"><path d="M 93.464844 469 L 689.042969 469 L 689.042969 472.394531 L 93.464844 472.394531 Z M 93.464844 469 " clip-rule="nonzero"/></clipPath><clipPath id="c6769bc417"><path d="M 93.878906 469.042969 L 688.878906 469.042969 C 688.960938 469.042969 689.019531 469.105469 689.019531 469.183594 L 689.019531 472.011719 C 689.019531 472.09375 688.960938 472.152344 688.878906 472.152344 L 93.878906 472.152344 C 93.796875 472.152344 93.738281 472.09375 93.738281 472.011719 L 93.738281 469.183594 C 93.738281 469.105469 93.796875 469.042969 93.878906 469.042969 M 93.878906 469.332031 L 93.878906 469.195312 L 94.015625 469.195312 L 94.015625 472.023438 L 93.878906 472.023438 L 93.878906 471.882812 L 688.878906 471.882812 L 688.878906 472.023438 L 688.742188 472.023438 L 688.742188 469.195312 L 688.878906 469.195312 L 688.878906 469.332031 Z M 93.878906 469.332031 " clip-rule="nonzero"/></clipPath><clipPath id="566f43d5a1"><path d="M 0.671875 0 L 596.042969 0 L 596.042969 3.347656 L 0.671875 3.347656 Z M 0.671875 0 " clip-rule="nonzero"/></clipPath><clipPath id="e196980926"><path d="M 0.878906 0.0429688 L 595.878906 0.0429688 C 595.960938 0.0429688 596.019531 0.105469 596.019531 0.183594 L 596.019531 3.011719 C 596.019531 3.09375 595.960938 3.152344 595.878906 3.152344 L 0.878906 3.152344 C 0.796875 3.152344 0.738281 3.09375 0.738281 3.011719 L 0.738281 0.183594 C 0.738281 0.105469 0.796875 0.0429688 0.878906 0.0429688 M 0.878906 0.332031 L 0.878906 0.195312 L 1.015625 0.195312 L 1.015625 3.023438 L 0.878906 3.023438 L 0.878906 2.882812 L 595.878906 2.882812 L 595.878906 3.023438 L 595.742188 3.023438 L 595.742188 0.195312 L 595.878906 0.195312 L 595.878906 0.332031 Z M 0.878906 0.332031 " clip-rule="nonzero"/></clipPath><clipPath id="babee4b5b6"><rect x="0" width="597" y="0" height="4"/></clipPath><clipPath id="b59e851506"><path d="M 76.875 86.683594 L 705.882812 86.683594 L 705.882812 103.6875 L 76.875 103.6875 Z M 76.875 103.6875 L 93.878906 103.6875 L 93.878906 472.023438 L 76.875 472.023438 Z M 286.542969 103.6875 L 297.875 103.6875 L 297.875 472.023438 L 286.542969 472.023438 Z M 484.882812 103.6875 L 496.21875 103.6875 L 496.21875 472.023438 L 484.882812 472.023438 Z M 688.878906 103.6875 L 705.882812 103.6875 L 705.882812 472.023438 L 688.878906 472.023438 Z M 688.878906 103.6875 " clip-rule="nonzero"/></clipPath><clipPath id="a2b44f6d47"><path d="M 0.875 0.683594 L 629.882812 0.683594 L 629.882812 17.6875 L 0.875 17.6875 Z M 0.875 17.6875 L 17.878906 17.6875 L 17.878906 386.023438 L 0.875 386.023438 Z M 210.542969 17.6875 L 221.875 17.6875 L 221.875 386.023438 L 210.542969 386.023438 Z M 408.882812 17.6875 L 420.21875 17.6875 L 420.21875 386.023438 L 408.882812 386.023438 Z M 612.878906 17.6875 L 629.882812 17.6875 L 629.882812 386.023438 L 612.878906 386.023438 Z M 612.878906 17.6875 " clip-rule="nonzero"/></clipPath><clipPath id="848618db69"><rect x="0" width="630" y="0" height="387"/></clipPath><clipPath id="c72c373260"><path d="M 76.503906 86.316406 L 707 86.316406 L 707 472.394531 L 76.503906 472.394531 Z M 76.503906 86.316406 " clip-rule="nonzero"/></clipPath><clipPath id="9e4c15d0b3"><path d="M 496.21875 472.382812 L 484.882812 472.382812 C 484.683594 472.382812 484.523438 472.222656 484.523438 472.023438 L 484.523438 103.6875 L 484.882812 103.6875 L 484.882812 104.046875 L 297.875 104.046875 L 297.875 103.6875 L 298.234375 103.6875 L 298.234375 472.023438 C 298.234375 472.222656 298.074219 472.382812 297.875 472.382812 L 286.542969 472.382812 C 286.339844 472.382812 286.179688 472.222656 286.179688 472.023438 L 286.179688 103.6875 L 286.542969 103.6875 L 286.542969 104.046875 L 93.878906 104.046875 L 93.878906 103.6875 L 94.238281 103.6875 L 94.238281 472.023438 C 94.238281 472.222656 94.078125 472.382812 93.878906 472.382812 L 76.875 472.382812 C 76.675781 472.382812 76.515625 472.222656 76.515625 472.023438 L 76.515625 86.683594 C 76.515625 86.484375 76.675781 86.324219 76.875 86.324219 L 705.882812 86.324219 C 706.082031 86.324219 706.242188 86.484375 706.242188 86.683594 L 706.242188 472.023438 C 706.242188 472.222656 706.082031 472.382812 705.882812 472.382812 L 688.878906 472.382812 C 688.679688 472.382812 688.519531 472.222656 688.519531 472.023438 L 688.519531 103.6875 L 688.878906 103.6875 L 688.878906 104.046875 L 496.21875 104.046875 L 496.21875 103.6875 L 496.578125 103.6875 L 496.578125 472.023438 C 496.578125 472.222656 496.417969 472.382812 496.21875 472.382812 M 496.21875 471.664062 L 496.21875 472.023438 L 495.855469 472.023438 L 495.855469 103.6875 C 495.855469 103.488281 496.015625 103.328125 496.21875 103.328125 L 688.878906 103.328125 C 689.082031 103.328125 689.242188 103.488281 689.242188 103.6875 L 689.242188 472.023438 L 688.878906 472.023438 L 688.878906 471.664062 L 705.882812 471.664062 L 705.882812 472.023438 L 705.523438 472.023438 L 705.523438 86.683594 L 705.882812 86.683594 L 705.882812 87.042969 L 76.875 87.042969 L 76.875 86.683594 L 77.234375 86.683594 L 77.234375 472.023438 L 76.875 472.023438 L 76.875 471.664062 L 93.878906 471.664062 L 93.878906 472.023438 L 93.519531 472.023438 L 93.519531 103.6875 C 93.519531 103.488281 93.675781 103.328125 93.878906 103.328125 L 286.542969 103.328125 C 286.742188 103.328125 286.902344 103.488281 286.902344 103.6875 L 286.902344 472.023438 L 286.542969 472.023438 L 286.542969 471.664062 L 297.875 471.664062 L 297.875 472.023438 L 297.515625 472.023438 L 297.515625 103.6875 C 297.515625 103.488281 297.675781 103.328125 297.875 103.328125 L 484.882812 103.328125 C 485.082031 103.328125 485.242188 103.488281 485.242188 103.6875 L 485.242188 472.023438 L 484.882812 472.023438 L 484.882812 471.664062 Z M 496.21875 471.664062 " clip-rule="nonzero"/></clipPath><clipPath id="b7c6fe69dd"><path d="M 0.503906 0.316406 L 630.359375 0.316406 L 630.359375 386.394531 L 0.503906 386.394531 Z M 0.503906 0.316406 " clip-rule="nonzero"/></clipPath><clipPath id="54e472c744"><path d="M 420.21875 386.382812 L 408.882812 386.382812 C 408.683594 386.382812 408.523438 386.222656 408.523438 386.023438 L 408.523438 17.6875 L 408.882812 17.6875 L 408.882812 18.046875 L 221.875 18.046875 L 221.875 17.6875 L 222.234375 17.6875 L 222.234375 386.023438 C 222.234375 386.222656 222.074219 386.382812 221.875 386.382812 L 210.542969 386.382812 C 210.339844 386.382812 210.179688 386.222656 210.179688 386.023438 L 210.179688 17.6875 L 210.542969 17.6875 L 210.542969 18.046875 L 17.878906 18.046875 L 17.878906 17.6875 L 18.238281 17.6875 L 18.238281 386.023438 C 18.238281 386.222656 18.078125 386.382812 17.878906 386.382812 L 0.875 386.382812 C 0.675781 386.382812 0.515625 386.222656 0.515625 386.023438 L 0.515625 0.683594 C 0.515625 0.484375 0.675781 0.324219 0.875 0.324219 L 629.882812 0.324219 C 630.082031 0.324219 630.242188 0.484375 630.242188 0.683594 L 630.242188 386.023438 C 630.242188 386.222656 630.082031 386.382812 629.882812 386.382812 L 612.878906 386.382812 C 612.679688 386.382812 612.519531 386.222656 612.519531 386.023438 L 612.519531 17.6875 L 612.878906 17.6875 L 612.878906 18.046875 L 420.21875 18.046875 L 420.21875 17.6875 L 420.578125 17.6875 L 420.578125 386.023438 C 420.578125 386.222656 420.417969 386.382812 420.21875 386.382812 M 420.21875 385.664062 L 420.21875 386.023438 L 419.855469 386.023438 L 419.855469 17.6875 C 419.855469 17.488281 420.015625 17.328125 420.21875 17.328125 L 612.878906 17.328125 C 613.082031 17.328125 613.242188 17.488281 613.242188 17.6875 L 613.242188 386.023438 L 612.878906 386.023438 L 612.878906 385.664062 L 629.882812 385.664062 L 629.882812 386.023438 L 629.523438 386.023438 L 629.523438 0.683594 L 629.882812 0.683594 L 629.882812 1.042969 L 0.875 1.042969 L 0.875 0.683594 L 1.234375 0.683594 L 1.234375 386.023438 L 0.875 386.023438 L 0.875 385.664062 L 17.878906 385.664062 L 17.878906 386.023438 L 17.519531 386.023438 L 17.519531 17.6875 C 17.519531 17.488281 17.675781 17.328125 17.878906 17.328125 L 210.542969 17.328125 C 210.742188 17.328125 210.902344 17.488281 210.902344 17.6875 L 210.902344 386.023438 L 210.542969 386.023438 L 210.542969 385.664062 L 221.875 385.664062 L 221.875 386.023438 L 221.515625 386.023438 L 221.515625 17.6875 C 221.515625 17.488281 221.675781 17.328125 221.875 17.328125 L 408.882812 17.328125 C 409.082031 17.328125 409.242188 17.488281 409.242188 17.6875 L 409.242188 386.023438 L 408.882812 386.023438 L 408.882812 385.664062 Z M 420.21875 385.664062 " clip-rule="nonzero"/></clipPath><clipPath id="2664d75fd0"><rect x="0" width="631" y="0" height="387"/></clipPath><clipPath id="89f39bc1fb"><path d="M 93.464844 471.394531 L 690 471.394531 L 690 472.394531 L 93.464844 472.394531 Z M 93.464844 471.394531 " clip-rule="nonzero"/></clipPath><clipPath id="7a98e3a585"><path d="M 93.878906 471.773438 L 688.878906 471.773438 C 689.019531 471.773438 689.128906 471.882812 689.128906 472.023438 C 689.128906 472.164062 689.019531 472.273438 688.878906 472.273438 L 93.878906 472.273438 C 93.738281 472.273438 93.628906 472.164062 93.628906 472.023438 C 93.628906 471.882812 93.738281 471.773438 93.878906 471.773438 Z M 93.878906 471.773438 " clip-rule="nonzero"/></clipPath><clipPath id="885db5eca9"><path d="M 0.464844 0.628906 L 596.328125 0.628906 L 596.328125 1.347656 L 0.464844 1.347656 Z M 0.464844 0.628906 " clip-rule="nonzero"/></clipPath><clipPath id="38ff19859f"><path d="M 0.878906 0.773438 L 595.878906 0.773438 C 596.019531 0.773438 596.128906 0.882812 596.128906 1.023438 C 596.128906 1.164062 596.019531 1.273438 595.878906 1.273438 L 0.878906 1.273438 C 0.738281 1.273438 0.628906 1.164062 0.628906 1.023438 C 0.628906 0.882812 0.738281 0.773438 0.878906 0.773438 Z M 0.878906 0.773438 " clip-rule="nonzero"/></clipPath><clipPath id="57fa257879"><rect x="0" width="597" y="0" height="2"/></clipPath></defs><g clip-path="url(#513cc5fcb1)"><g transform="matrix(1, 0, 0, 1, 76, 86)"><g clip-path="url(#1a710dde3e)"><g clip-path="url(#c5704dbc76)"><rect x="-248.2336" width="1127.3472" fill="#ffffff" height="804.600001" y="-208.925" fill-opacity="1"/></g></g></g></g><g clip-path="url(#d046603f4b)"><g clip-path="url(#b656e2fd82)"><g transform="matrix(1, 0, 0, 1, 76, 86)"><g clip-path="url(#5c2f7e23bd)"><g clip-path="url(#f0763600dc)"><g clip-path="url(#791598407e)"><rect x="-248.2336" width="1127.3472" fill="#000000" height="804.600001" y="-208.925" fill-opacity="1"/></g></g></g></g></g></g><g clip-path="url(#05c2fc50a4)"><g transform="matrix(1, 0, 0, 1, 93, 469)"><g clip-path="url(#0df6f1e477)"><g clip-path="url(#5d9027fb78)"><rect x="-265.2336" width="1127.3472" fill="#ffffff" height="804.600001" y="-591.925" fill-opacity="1"/></g></g></g></g><g clip-path="url(#d92a642542)"><g clip-path="url(#c6769bc417)"><g transform="matrix(1, 0, 0, 1, 93, 469)"><g clip-path="url(#babee4b5b6)"><g clip-path="url(#566f43d5a1)"><g clip-path="url(#e196980926)"><rect x="-265.2336" width="1127.3472" fill="#000000" height="804.600001" y="-591.925" fill-opacity="1"/></g></g></g></g></g></g><g clip-path="url(#b59e851506)"><g transform="matrix(1, 0, 0, 1, 76, 86)"><g clip-path="url(#848618db69)"><g clip-path="url(#a2b44f6d47)"><rect x="-248.2336" width="1127.3472" fill="#ffffff" height="804.600001" y="-208.925" fill-opacity="1"/></g></g></g></g><g clip-path="url(#c72c373260)"><g clip-path="url(#9e4c15d0b3)"><g transform="matrix(1, 0, 0, 1, 76, 86)"><g clip-path="url(#2664d75fd0)"><g clip-path="url(#b7c6fe69dd)"><g clip-path="url(#54e472c744)"><rect x="-248.2336" width="1127.3472" fill="#000000" height="804.600001" y="-208.925" fill-opacity="1"/></g></g></g></g></g></g><g clip-path="url(#89f39bc1fb)"><g clip-path="url(#7a98e3a585)"><g transform="matrix(1, 0, 0, 1, 93, 471)"><g clip-path="url(#57fa257879)"><g clip-path="url(#885db5eca9)"><g clip-path="url(#38ff19859f)"><rect x="-265.2336" width="1127.3472" fill="#000000" height="804.600001" y="-593.925" fill-opacity="1"/></g></g></g></g></g></g><g fill="#000000" fill-opacity="1"><g transform="translate(158.664646, 288.233975)"><g><path d="M 12.09375 -1.859375 C 11.613281 -1.171875 10.941406 -0.65625 10.078125 -0.3125 C 9.222656 0.0195312 8.222656 0.1875 7.078125 0.1875 C 5.929688 0.1875 4.910156 -0.078125 4.015625 -0.609375 C 3.117188 -1.148438 2.425781 -1.921875 1.9375 -2.921875 C 1.445312 -3.921875 1.195312 -5.078125 1.1875 -6.390625 L 1.1875 -7.625 C 1.1875 -9.757812 1.679688 -11.410156 2.671875 -12.578125 C 3.671875 -13.753906 5.070312 -14.34375 6.875 -14.34375 C 8.351562 -14.34375 9.539062 -13.960938 10.4375 -13.203125 C 11.34375 -12.453125 11.894531 -11.382812 12.09375 -10 L 10.21875 -10 C 9.875 -11.875 8.757812 -12.8125 6.875 -12.8125 C 5.625 -12.8125 4.675781 -12.367188 4.03125 -11.484375 C 3.394531 -10.609375 3.070312 -9.335938 3.0625 -7.671875 L 3.0625 -6.515625 C 3.0625 -4.929688 3.421875 -3.671875 4.140625 -2.734375 C 4.867188 -1.796875 5.851562 -1.328125 7.09375 -1.328125 C 7.789062 -1.328125 8.398438 -1.40625 8.921875 -1.5625 C 9.453125 -1.71875 9.890625 -1.984375 10.234375 -2.359375 L 10.234375 -5.53125 L 6.953125 -5.53125 L 6.953125 -7.046875 L 12.09375 -7.046875 Z M 12.09375 -1.859375 "/></g></g></g><g fill="#000000" fill-opacity="1"><g transform="translate(172.220435, 288.233975)"><g><path d="M 7.859375 0 C 7.753906 -0.207031 7.664062 -0.578125 7.59375 -1.109375 C 6.757812 -0.242188 5.765625 0.1875 4.609375 0.1875 C 3.566406 0.1875 2.710938 -0.101562 2.046875 -0.6875 C 1.390625 -1.269531 1.0625 -2.015625 1.0625 -2.921875 C 1.0625 -4.015625 1.476562 -4.863281 2.3125 -5.46875 C 3.144531 -6.070312 4.316406 -6.375 5.828125 -6.375 L 7.578125 -6.375 L 7.578125 -7.203125 C 7.578125 -7.828125 7.382812 -8.328125 7 -8.703125 C 6.625 -9.078125 6.070312 -9.265625 5.34375 -9.265625 C 4.707031 -9.265625 4.171875 -9.101562 3.734375 -8.78125 C 3.296875 -8.457031 3.078125 -8.0625 3.078125 -7.59375 L 1.265625 -7.59375 C 1.265625 -8.125 1.453125 -8.632812 1.828125 -9.125 C 2.203125 -9.613281 2.707031 -10 3.34375 -10.28125 C 3.988281 -10.570312 4.691406 -10.71875 5.453125 -10.71875 C 6.660156 -10.71875 7.609375 -10.410156 8.296875 -9.796875 C 8.984375 -9.191406 9.34375 -8.359375 9.375 -7.296875 L 9.375 -2.453125 C 9.375 -1.492188 9.492188 -0.726562 9.734375 -0.15625 L 9.734375 0 Z M 4.875 -1.375 C 5.4375 -1.375 5.96875 -1.519531 6.46875 -1.8125 C 6.976562 -2.101562 7.347656 -2.476562 7.578125 -2.9375 L 7.578125 -5.109375 L 6.15625 -5.109375 C 3.957031 -5.109375 2.859375 -4.460938 2.859375 -3.171875 C 2.859375 -2.609375 3.046875 -2.164062 3.421875 -1.84375 C 3.796875 -1.53125 4.28125 -1.375 4.875 -1.375 Z M 4.875 -1.375 "/></g></g></g><g fill="#000000" fill-opacity="1"><g transform="translate(183.045628, 288.233975)"><g><path d="M 6.4375 -8.90625 C 6.164062 -8.945312 5.875 -8.96875 5.5625 -8.96875 C 4.382812 -8.96875 3.582031 -8.46875 3.15625 -7.46875 L 3.15625 0 L 1.359375 0 L 1.359375 -10.515625 L 3.109375 -10.515625 L 3.140625 -9.296875 C 3.734375 -10.242188 4.566406 -10.71875 5.640625 -10.71875 C 5.992188 -10.71875 6.257812 -10.671875 6.4375 -10.578125 Z M 6.4375 -8.90625 "/></g></g></g><g fill="#000000" fill-opacity="1"><g transform="translate(189.779797, 288.233975)"><g><path d="M 7.859375 0 C 7.753906 -0.207031 7.664062 -0.578125 7.59375 -1.109375 C 6.757812 -0.242188 5.765625 0.1875 4.609375 0.1875 C 3.566406 0.1875 2.710938 -0.101562 2.046875 -0.6875 C 1.390625 -1.269531 1.0625 -2.015625 1.0625 -2.921875 C 1.0625 -4.015625 1.476562 -4.863281 2.3125 -5.46875 C 3.144531 -6.070312 4.316406 -6.375 5.828125 -6.375 L 7.578125 -6.375 L 7.578125 -7.203125 C 7.578125 -7.828125 7.382812 -8.328125 7 -8.703125 C 6.625 -9.078125 6.070312 -9.265625 5.34375 -9.265625 C 4.707031 -9.265625 4.171875 -9.101562 3.734375 -8.78125 C 3.296875 -8.457031 3.078125 -8.0625 3.078125 -7.59375 L 1.265625 -7.59375 C 1.265625 -8.125 1.453125 -8.632812 1.828125 -9.125 C 2.203125 -9.613281 2.707031 -10 3.34375 -10.28125 C 3.988281 -10.570312 4.691406 -10.71875 5.453125 -10.71875 C 6.660156 -10.71875 7.609375 -10.410156 8.296875 -9.796875 C 8.984375 -9.191406 9.34375 -8.359375 9.375 -7.296875 L 9.375 -2.453125 C 9.375 -1.492188 9.492188 -0.726562 9.734375 -0.15625 L 9.734375 0 Z M 4.875 -1.375 C 5.4375 -1.375 5.96875 -1.519531 6.46875 -1.8125 C 6.976562 -2.101562 7.347656 -2.476562 7.578125 -2.9375 L 7.578125 -5.109375 L 6.15625 -5.109375 C 3.957031 -5.109375 2.859375 -4.460938 2.859375 -3.171875 C 2.859375 -2.609375 3.046875 -2.164062 3.421875 -1.84375 C 3.796875 -1.53125 4.28125 -1.375 4.875 -1.375 Z M 4.875 -1.375 "/></g></g></g><g fill="#000000" fill-opacity="1"><g transform="translate(200.604989, 288.233975)"><g><path d="M 0.9375 -5.34375 C 0.9375 -6.988281 1.3125 -8.296875 2.0625 -9.265625 C 2.820312 -10.234375 3.828125 -10.71875 5.078125 -10.71875 C 6.367188 -10.71875 7.375 -10.257812 8.09375 -9.34375 L 8.171875 -10.515625 L 9.8125 -10.515625 L 9.8125 -0.25 C 9.8125 1.101562 9.40625 2.171875 8.59375 2.953125 C 7.789062 3.742188 6.710938 4.140625 5.359375 4.140625 C 4.597656 4.140625 3.851562 3.976562 3.125 3.65625 C 2.40625 3.332031 1.851562 2.890625 1.46875 2.328125 L 2.40625 1.25 C 3.175781 2.195312 4.117188 2.671875 5.234375 2.671875 C 6.109375 2.671875 6.789062 2.425781 7.28125 1.9375 C 7.769531 1.445312 8.015625 0.753906 8.015625 -0.140625 L 8.015625 -1.046875 C 7.296875 -0.222656 6.3125 0.1875 5.0625 0.1875 C 3.832031 0.1875 2.835938 -0.304688 2.078125 -1.296875 C 1.316406 -2.285156 0.9375 -3.632812 0.9375 -5.34375 Z M 2.734375 -5.140625 C 2.734375 -3.953125 2.976562 -3.019531 3.46875 -2.34375 C 3.957031 -1.664062 4.640625 -1.328125 5.515625 -1.328125 C 6.648438 -1.328125 7.484375 -1.84375 8.015625 -2.875 L 8.015625 -7.671875 C 7.460938 -8.679688 6.632812 -9.1875 5.53125 -9.1875 C 4.65625 -9.1875 3.96875 -8.84375 3.46875 -8.15625 C 2.976562 -7.476562 2.734375 -6.472656 2.734375 -5.140625 Z M 2.734375 -5.140625 "/></g></g></g><g fill="#000000" fill-opacity="1"><g transform="translate(211.770296, 288.233975)"><g><path d="M 5.71875 0.1875 C 4.300781 0.1875 3.144531 -0.273438 2.25 -1.203125 C 1.351562 -2.140625 0.90625 -3.394531 0.90625 -4.96875 L 0.90625 -5.296875 C 0.90625 -6.335938 1.101562 -7.269531 1.5 -8.09375 C 1.894531 -8.914062 2.453125 -9.554688 3.171875 -10.015625 C 3.890625 -10.484375 4.664062 -10.71875 5.5 -10.71875 C 6.863281 -10.71875 7.925781 -10.265625 8.6875 -9.359375 C 9.445312 -8.460938 9.828125 -7.171875 9.828125 -5.484375 L 9.828125 -4.75 L 2.703125 -4.75 C 2.722656 -3.707031 3.023438 -2.863281 3.609375 -2.21875 C 4.191406 -1.582031 4.929688 -1.265625 5.828125 -1.265625 C 6.460938 -1.265625 7 -1.394531 7.4375 -1.65625 C 7.875 -1.914062 8.257812 -2.257812 8.59375 -2.6875 L 9.6875 -1.84375 C 8.8125 -0.488281 7.488281 0.1875 5.71875 0.1875 Z M 5.5 -9.234375 C 4.769531 -9.234375 4.160156 -8.96875 3.671875 -8.4375 C 3.179688 -7.914062 2.878906 -7.175781 2.765625 -6.21875 L 8.03125 -6.21875 L 8.03125 -6.359375 C 7.976562 -7.273438 7.726562 -7.984375 7.28125 -8.484375 C 6.84375 -8.984375 6.25 -9.234375 5.5 -9.234375 Z M 5.5 -9.234375 "/></g></g></g><g fill="#000000" fill-opacity="1"><g transform="translate(359.837876, 288.233975)"><g><path d="M 12.09375 -1.859375 C 11.613281 -1.171875 10.941406 -0.65625 10.078125 -0.3125 C 9.222656 0.0195312 8.222656 0.1875 7.078125 0.1875 C 5.929688 0.1875 4.910156 -0.078125 4.015625 -0.609375 C 3.117188 -1.148438 2.425781 -1.921875 1.9375 -2.921875 C 1.445312 -3.921875 1.195312 -5.078125 1.1875 -6.390625 L 1.1875 -7.625 C 1.1875 -9.757812 1.679688 -11.410156 2.671875 -12.578125 C 3.671875 -13.753906 5.070312 -14.34375 6.875 -14.34375 C 8.351562 -14.34375 9.539062 -13.960938 10.4375 -13.203125 C 11.34375 -12.453125 11.894531 -11.382812 12.09375 -10 L 10.21875 -10 C 9.875 -11.875 8.757812 -12.8125 6.875 -12.8125 C 5.625 -12.8125 4.675781 -12.367188 4.03125 -11.484375 C 3.394531 -10.609375 3.070312 -9.335938 3.0625 -7.671875 L 3.0625 -6.515625 C 3.0625 -4.929688 3.421875 -3.671875 4.140625 -2.734375 C 4.867188 -1.796875 5.851562 -1.328125 7.09375 -1.328125 C 7.789062 -1.328125 8.398438 -1.40625 8.921875 -1.5625 C 9.453125 -1.71875 9.890625 -1.984375 10.234375 -2.359375 L 10.234375 -5.53125 L 6.953125 -5.53125 L 6.953125 -7.046875 L 12.09375 -7.046875 Z M 12.09375 -1.859375 "/></g></g></g><g fill="#000000" fill-opacity="1"><g transform="translate(373.393666, 288.233975)"><g><path d="M 7.859375 0 C 7.753906 -0.207031 7.664062 -0.578125 7.59375 -1.109375 C 6.757812 -0.242188 5.765625 0.1875 4.609375 0.1875 C 3.566406 0.1875 2.710938 -0.101562 2.046875 -0.6875 C 1.390625 -1.269531 1.0625 -2.015625 1.0625 -2.921875 C 1.0625 -4.015625 1.476562 -4.863281 2.3125 -5.46875 C 3.144531 -6.070312 4.316406 -6.375 5.828125 -6.375 L 7.578125 -6.375 L 7.578125 -7.203125 C 7.578125 -7.828125 7.382812 -8.328125 7 -8.703125 C 6.625 -9.078125 6.070312 -9.265625 5.34375 -9.265625 C 4.707031 -9.265625 4.171875 -9.101562 3.734375 -8.78125 C 3.296875 -8.457031 3.078125 -8.0625 3.078125 -7.59375 L 1.265625 -7.59375 C 1.265625 -8.125 1.453125 -8.632812 1.828125 -9.125 C 2.203125 -9.613281 2.707031 -10 3.34375 -10.28125 C 3.988281 -10.570312 4.691406 -10.71875 5.453125 -10.71875 C 6.660156 -10.71875 7.609375 -10.410156 8.296875 -9.796875 C 8.984375 -9.191406 9.34375 -8.359375 9.375 -7.296875 L 9.375 -2.453125 C 9.375 -1.492188 9.492188 -0.726562 9.734375 -0.15625 L 9.734375 0 Z M 4.875 -1.375 C 5.4375 -1.375 5.96875 -1.519531 6.46875 -1.8125 C 6.976562 -2.101562 7.347656 -2.476562 7.578125 -2.9375 L 7.578125 -5.109375 L 6.15625 -5.109375 C 3.957031 -5.109375 2.859375 -4.460938 2.859375 -3.171875 C 2.859375 -2.609375 3.046875 -2.164062 3.421875 -1.84375 C 3.796875 -1.53125 4.28125 -1.375 4.875 -1.375 Z M 4.875 -1.375 "/></g></g></g><g fill="#000000" fill-opacity="1"><g transform="translate(384.218858, 288.233975)"><g><path d="M 6.4375 -8.90625 C 6.164062 -8.945312 5.875 -8.96875 5.5625 -8.96875 C 4.382812 -8.96875 3.582031 -8.46875 3.15625 -7.46875 L 3.15625 0 L 1.359375 0 L 1.359375 -10.515625 L 3.109375 -10.515625 L 3.140625 -9.296875 C 3.734375 -10.242188 4.566406 -10.71875 5.640625 -10.71875 C 5.992188 -10.71875 6.257812 -10.671875 6.4375 -10.578125 Z M 6.4375 -8.90625 "/></g></g></g><g fill="#000000" fill-opacity="1"><g transform="translate(390.953027, 288.233975)"><g><path d="M 7.859375 0 C 7.753906 -0.207031 7.664062 -0.578125 7.59375 -1.109375 C 6.757812 -0.242188 5.765625 0.1875 4.609375 0.1875 C 3.566406 0.1875 2.710938 -0.101562 2.046875 -0.6875 C 1.390625 -1.269531 1.0625 -2.015625 1.0625 -2.921875 C 1.0625 -4.015625 1.476562 -4.863281 2.3125 -5.46875 C 3.144531 -6.070312 4.316406 -6.375 5.828125 -6.375 L 7.578125 -6.375 L 7.578125 -7.203125 C 7.578125 -7.828125 7.382812 -8.328125 7 -8.703125 C 6.625 -9.078125 6.070312 -9.265625 5.34375 -9.265625 C 4.707031 -9.265625 4.171875 -9.101562 3.734375 -8.78125 C 3.296875 -8.457031 3.078125 -8.0625 3.078125 -7.59375 L 1.265625 -7.59375 C 1.265625 -8.125 1.453125 -8.632812 1.828125 -9.125 C 2.203125 -9.613281 2.707031 -10 3.34375 -10.28125 C 3.988281 -10.570312 4.691406 -10.71875 5.453125 -10.71875 C 6.660156 -10.71875 7.609375 -10.410156 8.296875 -9.796875 C 8.984375 -9.191406 9.34375 -8.359375 9.375 -7.296875 L 9.375 -2.453125 C 9.375 -1.492188 9.492188 -0.726562 9.734375 -0.15625 L 9.734375 0 Z M 4.875 -1.375 C 5.4375 -1.375 5.96875 -1.519531 6.46875 -1.8125 C 6.976562 -2.101562 7.347656 -2.476562 7.578125 -2.9375 L 7.578125 -5.109375 L 6.15625 -5.109375 C 3.957031 -5.109375 2.859375 -4.460938 2.859375 -3.171875 C 2.859375 -2.609375 3.046875 -2.164062 3.421875 -1.84375 C 3.796875 -1.53125 4.28125 -1.375 4.875 -1.375 Z M 4.875 -1.375 "/></g></g></g><g fill="#000000" fill-opacity="1"><g transform="translate(401.778219, 288.233975)"><g><path d="M 0.9375 -5.34375 C 0.9375 -6.988281 1.3125 -8.296875 2.0625 -9.265625 C 2.820312 -10.234375 3.828125 -10.71875 5.078125 -10.71875 C 6.367188 -10.71875 7.375 -10.257812 8.09375 -9.34375 L 8.171875 -10.515625 L 9.8125 -10.515625 L 9.8125 -0.25 C 9.8125 1.101562 9.40625 2.171875 8.59375 2.953125 C 7.789062 3.742188 6.710938 4.140625 5.359375 4.140625 C 4.597656 4.140625 3.851562 3.976562 3.125 3.65625 C 2.40625 3.332031 1.851562 2.890625 1.46875 2.328125 L 2.40625 1.25 C 3.175781 2.195312 4.117188 2.671875 5.234375 2.671875 C 6.109375 2.671875 6.789062 2.425781 7.28125 1.9375 C 7.769531 1.445312 8.015625 0.753906 8.015625 -0.140625 L 8.015625 -1.046875 C 7.296875 -0.222656 6.3125 0.1875 5.0625 0.1875 C 3.832031 0.1875 2.835938 -0.304688 2.078125 -1.296875 C 1.316406 -2.285156 0.9375 -3.632812 0.9375 -5.34375 Z M 2.734375 -5.140625 C 2.734375 -3.953125 2.976562 -3.019531 3.46875 -2.34375 C 3.957031 -1.664062 4.640625 -1.328125 5.515625 -1.328125 C 6.648438 -1.328125 7.484375 -1.84375 8.015625 -2.875 L 8.015625 -7.671875 C 7.460938 -8.679688 6.632812 -9.1875 5.53125 -9.1875 C 4.65625 -9.1875 3.96875 -8.84375 3.46875 -8.15625 C 2.976562 -7.476562 2.734375 -6.472656 2.734375 -5.140625 Z M 2.734375 -5.140625 "/></g></g></g><g fill="#000000" fill-opacity="1"><g transform="translate(412.943527, 288.233975)"><g><path d="M 5.71875 0.1875 C 4.300781 0.1875 3.144531 -0.273438 2.25 -1.203125 C 1.351562 -2.140625 0.90625 -3.394531 0.90625 -4.96875 L 0.90625 -5.296875 C 0.90625 -6.335938 1.101562 -7.269531 1.5 -8.09375 C 1.894531 -8.914062 2.453125 -9.554688 3.171875 -10.015625 C 3.890625 -10.484375 4.664062 -10.71875 5.5 -10.71875 C 6.863281 -10.71875 7.925781 -10.265625 8.6875 -9.359375 C 9.445312 -8.460938 9.828125 -7.171875 9.828125 -5.484375 L 9.828125 -4.75 L 2.703125 -4.75 C 2.722656 -3.707031 3.023438 -2.863281 3.609375 -2.21875 C 4.191406 -1.582031 4.929688 -1.265625 5.828125 -1.265625 C 6.460938 -1.265625 7 -1.394531 7.4375 -1.65625 C 7.875 -1.914062 8.257812 -2.257812 8.59375 -2.6875 L 9.6875 -1.84375 C 8.8125 -0.488281 7.488281 0.1875 5.71875 0.1875 Z M 5.5 -9.234375 C 4.769531 -9.234375 4.160156 -8.96875 3.671875 -8.4375 C 3.179688 -7.914062 2.878906 -7.175781 2.765625 -6.21875 L 8.03125 -6.21875 L 8.03125 -6.359375 C 7.976562 -7.273438 7.726562 -7.984375 7.28125 -8.484375 C 6.84375 -8.984375 6.25 -9.234375 5.5 -9.234375 Z M 5.5 -9.234375 "/></g></g></g><g fill="#000000" fill-opacity="1"><g transform="translate(561.011106, 288.233975)"><g><path d="M 12.09375 -1.859375 C 11.613281 -1.171875 10.941406 -0.65625 10.078125 -0.3125 C 9.222656 0.0195312 8.222656 0.1875 7.078125 0.1875 C 5.929688 0.1875 4.910156 -0.078125 4.015625 -0.609375 C 3.117188 -1.148438 2.425781 -1.921875 1.9375 -2.921875 C 1.445312 -3.921875 1.195312 -5.078125 1.1875 -6.390625 L 1.1875 -7.625 C 1.1875 -9.757812 1.679688 -11.410156 2.671875 -12.578125 C 3.671875 -13.753906 5.070312 -14.34375 6.875 -14.34375 C 8.351562 -14.34375 9.539062 -13.960938 10.4375 -13.203125 C 11.34375 -12.453125 11.894531 -11.382812 12.09375 -10 L 10.21875 -10 C 9.875 -11.875 8.757812 -12.8125 6.875 -12.8125 C 5.625 -12.8125 4.675781 -12.367188 4.03125 -11.484375 C 3.394531 -10.609375 3.070312 -9.335938 3.0625 -7.671875 L 3.0625 -6.515625 C 3.0625 -4.929688 3.421875 -3.671875 4.140625 -2.734375 C 4.867188 -1.796875 5.851562 -1.328125 7.09375 -1.328125 C 7.789062 -1.328125 8.398438 -1.40625 8.921875 -1.5625 C 9.453125 -1.71875 9.890625 -1.984375 10.234375 -2.359375 L 10.234375 -5.53125 L 6.953125 -5.53125 L 6.953125 -7.046875 L 12.09375 -7.046875 Z M 12.09375 -1.859375 "/></g></g></g><g fill="#000000" fill-opacity="1"><g transform="translate(574.566896, 288.233975)"><g><path d="M 7.859375 0 C 7.753906 -0.207031 7.664062 -0.578125 7.59375 -1.109375 C 6.757812 -0.242188 5.765625 0.1875 4.609375 0.1875 C 3.566406 0.1875 2.710938 -0.101562 2.046875 -0.6875 C 1.390625 -1.269531 1.0625 -2.015625 1.0625 -2.921875 C 1.0625 -4.015625 1.476562 -4.863281 2.3125 -5.46875 C 3.144531 -6.070312 4.316406 -6.375 5.828125 -6.375 L 7.578125 -6.375 L 7.578125 -7.203125 C 7.578125 -7.828125 7.382812 -8.328125 7 -8.703125 C 6.625 -9.078125 6.070312 -9.265625 5.34375 -9.265625 C 4.707031 -9.265625 4.171875 -9.101562 3.734375 -8.78125 C 3.296875 -8.457031 3.078125 -8.0625 3.078125 -7.59375 L 1.265625 -7.59375 C 1.265625 -8.125 1.453125 -8.632812 1.828125 -9.125 C 2.203125 -9.613281 2.707031 -10 3.34375 -10.28125 C 3.988281 -10.570312 4.691406 -10.71875 5.453125 -10.71875 C 6.660156 -10.71875 7.609375 -10.410156 8.296875 -9.796875 C 8.984375 -9.191406 9.34375 -8.359375 9.375 -7.296875 L 9.375 -2.453125 C 9.375 -1.492188 9.492188 -0.726562 9.734375 -0.15625 L 9.734375 0 Z M 4.875 -1.375 C 5.4375 -1.375 5.96875 -1.519531 6.46875 -1.8125 C 6.976562 -2.101562 7.347656 -2.476562 7.578125 -2.9375 L 7.578125 -5.109375 L 6.15625 -5.109375 C 3.957031 -5.109375 2.859375 -4.460938 2.859375 -3.171875 C 2.859375 -2.609375 3.046875 -2.164062 3.421875 -1.84375 C 3.796875 -1.53125 4.28125 -1.375 4.875 -1.375 Z M 4.875 -1.375 "/></g></g></g><g fill="#000000" fill-opacity="1"><g transform="translate(585.392088, 288.233975)"><g><path d="M 6.4375 -8.90625 C 6.164062 -8.945312 5.875 -8.96875 5.5625 -8.96875 C 4.382812 -8.96875 3.582031 -8.46875 3.15625 -7.46875 L 3.15625 0 L 1.359375 0 L 1.359375 -10.515625 L 3.109375 -10.515625 L 3.140625 -9.296875 C 3.734375 -10.242188 4.566406 -10.71875 5.640625 -10.71875 C 5.992188 -10.71875 6.257812 -10.671875 6.4375 -10.578125 Z M 6.4375 -8.90625 "/></g></g></g><g fill="#000000" fill-opacity="1"><g transform="translate(592.126257, 288.233975)"><g><path d="M 7.859375 0 C 7.753906 -0.207031 7.664062 -0.578125 7.59375 -1.109375 C 6.757812 -0.242188 5.765625 0.1875 4.609375 0.1875 C 3.566406 0.1875 2.710938 -0.101562 2.046875 -0.6875 C 1.390625 -1.269531 1.0625 -2.015625 1.0625 -2.921875 C 1.0625 -4.015625 1.476562 -4.863281 2.3125 -5.46875 C 3.144531 -6.070312 4.316406 -6.375 5.828125 -6.375 L 7.578125 -6.375 L 7.578125 -7.203125 C 7.578125 -7.828125 7.382812 -8.328125 7 -8.703125 C 6.625 -9.078125 6.070312 -9.265625 5.34375 -9.265625 C 4.707031 -9.265625 4.171875 -9.101562 3.734375 -8.78125 C 3.296875 -8.457031 3.078125 -8.0625 3.078125 -7.59375 L 1.265625 -7.59375 C 1.265625 -8.125 1.453125 -8.632812 1.828125 -9.125 C 2.203125 -9.613281 2.707031 -10 3.34375 -10.28125 C 3.988281 -10.570312 4.691406 -10.71875 5.453125 -10.71875 C 6.660156 -10.71875 7.609375 -10.410156 8.296875 -9.796875 C 8.984375 -9.191406 9.34375 -8.359375 9.375 -7.296875 L 9.375 -2.453125 C 9.375 -1.492188 9.492188 -0.726562 9.734375 -0.15625 L 9.734375 0 Z M 4.875 -1.375 C 5.4375 -1.375 5.96875 -1.519531 6.46875 -1.8125 C 6.976562 -2.101562 7.347656 -2.476562 7.578125 -2.9375 L 7.578125 -5.109375 L 6.15625 -5.109375 C 3.957031 -5.109375 2.859375 -4.460938 2.859375 -3.171875 C 2.859375 -2.609375 3.046875 -2.164062 3.421875 -1.84375 C 3.796875 -1.53125 4.28125 -1.375 4.875 -1.375 Z M 4.875 -1.375 "/></g></g></g><g fill="#000000" fill-opacity="1"><g transform="translate(602.951449, 288.233975)"><g><path d="M 0.9375 -5.34375 C 0.9375 -6.988281 1.3125 -8.296875 2.0625 -9.265625 C 2.820312 -10.234375 3.828125 -10.71875 5.078125 -10.71875 C 6.367188 -10.71875 7.375 -10.257812 8.09375 -9.34375 L 8.171875 -10.515625 L 9.8125 -10.515625 L 9.8125 -0.25 C 9.8125 1.101562 9.40625 2.171875 8.59375 2.953125 C 7.789062 3.742188 6.710938 4.140625 5.359375 4.140625 C 4.597656 4.140625 3.851562 3.976562 3.125 3.65625 C 2.40625 3.332031 1.851562 2.890625 1.46875 2.328125 L 2.40625 1.25 C 3.175781 2.195312 4.117188 2.671875 5.234375 2.671875 C 6.109375 2.671875 6.789062 2.425781 7.28125 1.9375 C 7.769531 1.445312 8.015625 0.753906 8.015625 -0.140625 L 8.015625 -1.046875 C 7.296875 -0.222656 6.3125 0.1875 5.0625 0.1875 C 3.832031 0.1875 2.835938 -0.304688 2.078125 -1.296875 C 1.316406 -2.285156 0.9375 -3.632812 0.9375 -5.34375 Z M 2.734375 -5.140625 C 2.734375 -3.953125 2.976562 -3.019531 3.46875 -2.34375 C 3.957031 -1.664062 4.640625 -1.328125 5.515625 -1.328125 C 6.648438 -1.328125 7.484375 -1.84375 8.015625 -2.875 L 8.015625 -7.671875 C 7.460938 -8.679688 6.632812 -9.1875 5.53125 -9.1875 C 4.65625 -9.1875 3.96875 -8.84375 3.46875 -8.15625 C 2.976562 -7.476562 2.734375 -6.472656 2.734375 -5.140625 Z M 2.734375 -5.140625 "/></g></g></g><g fill="#000000" fill-opacity="1"><g transform="translate(614.116757, 288.233975)"><g><path d="M 5.71875 0.1875 C 4.300781 0.1875 3.144531 -0.273438 2.25 -1.203125 C 1.351562 -2.140625 0.90625 -3.394531 0.90625 -4.96875 L 0.90625 -5.296875 C 0.90625 -6.335938 1.101562 -7.269531 1.5 -8.09375 C 1.894531 -8.914062 2.453125 -9.554688 3.171875 -10.015625 C 3.890625 -10.484375 4.664062 -10.71875 5.5 -10.71875 C 6.863281 -10.71875 7.925781 -10.265625 8.6875 -9.359375 C 9.445312 -8.460938 9.828125 -7.171875 9.828125 -5.484375 L 9.828125 -4.75 L 2.703125 -4.75 C 2.722656 -3.707031 3.023438 -2.863281 3.609375 -2.21875 C 4.191406 -1.582031 4.929688 -1.265625 5.828125 -1.265625 C 6.460938 -1.265625 7 -1.394531 7.4375 -1.65625 C 7.875 -1.914062 8.257812 -2.257812 8.59375 -2.6875 L 9.6875 -1.84375 C 8.8125 -0.488281 7.488281 0.1875 5.71875 0.1875 Z M 5.5 -9.234375 C 4.769531 -9.234375 4.160156 -8.96875 3.671875 -8.4375 C 3.179688 -7.914062 2.878906 -7.175781 2.765625 -6.21875 L 8.03125 -6.21875 L 8.03125 -6.359375 C 7.976562 -7.273438 7.726562 -7.984375 7.28125 -8.484375 C 6.84375 -8.984375 6.25 -9.234375 5.5 -9.234375 Z M 5.5 -9.234375 "/></g></g></g></svg>